<svg xmlns="http://www.w3.org/2000/svg" viewBox="0 0 200 200"><defs><style>.cls-1{fill:#199e1d;}.cls-2{fill:#005700;}.cls-3{fill:#008900;}.cls-4{fill:#8d8d8d;}.cls-5{fill:#212120;}.cls-6{fill:#9f0000;}.cls-7{fill:#fefefe;}.cls-8{fill:#c40e0e;}.cls-9{fill:#222;}.cls-10{font-size:37px;fill:#fff;font-family:ModMatrix, ModMatrix;font-weight:700;}</style></defs><title>AntiRaptor</title><g id="Layer_2" data-name="Layer 2"><g id="svg8"><rect id="rect5165" class="cls-1" x="10" y="10" width="180" height="180" rx="10" ry="10"/></g><g id="Layer_5" data-name="Layer 5"><path class="cls-2" d="M104.53,184.51h-.73c0-.16-.17-.14-.29-.14a104.16,104.16,0,0,1-13.1-.45c-.65-.08-1.31-.11-2-.17-1.5-.15-3-.41-4.48-.7-1.78-.36-3.6-.58-5.37-1s-3.64-.94-5.45-1.45a37.65,37.65,0,0,1-3.89-1.14.48.48,0,0,0-.44-.12h0a.31.31,0,0,0-.31-.16.31.31,0,0,1-.13,0,.53.53,0,0,0-.45-.12h0l-.15-.15-.15,0a.5.5,0,0,0-.44-.11h0a.31.31,0,0,0-.31-.16.28.28,0,0,1-.13,0l-.32-.12a.2.2,0,0,1-.11,0l-.18-.11-.14,0-.3-.11-.13,0-.32-.12a.27.27,0,0,1-.12,0l-.32-.12a.2.2,0,0,1-.11,0l-.18-.11-.14,0-.31-.12-.12,0-.17-.1-.14,0-.3-.12a16.49,16.49,0,0,1-4-1.65l-.3-.12h0a.3.3,0,0,0-.31-.16.2.2,0,0,1-.11,0l-.18-.12v0a.3.3,0,0,0-.31-.16l-.12,0-.17-.12-.12,0-.18-.12a.27.27,0,0,1-.12,0l-.17-.11-.12,0-.18-.11a2,2,0,0,1-.72-.33L56,174h0a.34.34,0,0,0-.32-.16l-.11,0-.18-.12h0l-.15-.14a2.17,2.17,0,0,1-.74-.34l-.3-.12h0a.29.29,0,0,0-.29-.16h0a.34.34,0,0,0-.31-.15h0a.33.33,0,0,0-.31-.16.2.2,0,0,1-.13,0l-.17-.12h0l-.15-.14-2.4-1.5a51.68,51.68,0,0,1-5.43-3.73c-1.16-1-2.36-1.87-3.52-2.82A65.78,65.78,0,0,1,36,159.22c-1.76-1.81-3.5-3.64-5.11-5.61s-3.16-3.78-4.57-5.8a82.73,82.73,0,0,1-6.22-10.35,80,80,0,0,1-3.52-8.78,14.18,14.18,0,0,1-1-3.31c0-.17,0-.35-.15-.46h0a.52.52,0,0,0-.12-.46.27.27,0,0,1,0-.12c0-.21.06-.45-.16-.61h0c0-.2.07-.43-.15-.58,0-.06-.11-.1-.13-.16-.36-1.94-1.1-3.79-1.36-5.76-.19-1.49-.63-2.95-.84-4.43-.29-2.12-.63-4.23-.79-6.38-.19-2.56-.51-5.11-.52-7.68,0-1,.11-2,.11-3.06l0-2.36a26,26,0,0,0,.12-3.85.25.25,0,0,1,0-.12c.24-.43.09-.9.12-1.35l0-.28a3.57,3.57,0,0,0,.12-1.49,4.49,4.49,0,0,1,.18-1.75,5.74,5.74,0,0,0,.12-1.8.23.23,0,0,1,0-.11c.2-.28.1-.6.11-.91a.35.35,0,0,1,0-.14c.19-.22.11-.5.12-.75a.27.27,0,0,1,0-.12c.17-.18.12-.4.12-.62l0-.27a.77.77,0,0,0,.11-.61,36.38,36.38,0,0,1,.77-4.27c.2-.22.11-.5.12-.75a.27.27,0,0,1,0-.12c.17-.18.12-.4.12-.62a.27.27,0,0,1,0-.12.77.77,0,0,0,.11-.61v0c.19-.11.17-.29.16-.47a2.11,2.11,0,0,1,0-.5c.5-1.8,1-3.59,1.46-5.4a16.24,16.24,0,0,1,1.15-3.38c.18-.11.16-.29.16-.46a.23.23,0,0,1,0-.11l.12-.33c0-.1,0-.23.12-.27s.17-.29.17-.47a.2.2,0,0,1,0-.11l.12-.33c.29-.84.56-1.69.9-2.52.51-1.28,1-2.57,1.63-3.83s1.18-2.24,1.77-3.35l.13-.18a.14.14,0,0,1,0-.11l.12-.19a1.42,1.42,0,0,1,.33-.7l.12-.18a22.27,22.27,0,0,1,1.4-2.53,92.54,92.54,0,0,1,5.23-7.77,81,81,0,0,1,5.38-6.45,85.2,85.2,0,0,1,8-7.42c2-1.58,3.95-3.19,6.08-4.57,1.66-1.07,3.29-2.17,5-3.2s3.29-1.57,4.8-2.61a25,25,0,0,0-.17,4A15.28,15.28,0,0,0,59.54,24c.1.27.38.35.64.45a5,5,0,0,0,4-.25,26.93,26.93,0,0,1,5-1.49C73,21.8,77,21.15,80.79,20.2a17.11,17.11,0,0,1,3.09-.63h0a16.25,16.25,0,0,1-1.82,2,26,26,0,0,0-4,5.74,20.47,20.47,0,0,0-2.15,8.9,21.33,21.33,0,0,0,.27,5.86A13,13,0,0,0,77,45.51a4.67,4.67,0,0,1,.66,2.09,9.18,9.18,0,0,1-1.74,0,21.87,21.87,0,0,0-4.35-.25,22.78,22.78,0,0,0-6.78,1.37,20.75,20.75,0,0,0-5.15,2.74,22.47,22.47,0,0,0-4.51,3.83A29.13,29.13,0,0,0,48.91,65a11.37,11.37,0,0,0-.81,4.87,33.86,33.86,0,0,0,.65,3.48,23.38,23.38,0,0,0,3.6,7.95A20.41,20.41,0,0,0,56,85.71a21.4,21.4,0,0,0,5.54,3.82,6.07,6.07,0,0,0,1.71.72,8.61,8.61,0,0,1,2.41.6,15.57,15.57,0,0,0,2.9.72,32,32,0,0,0-.15,11.37c.15.83.1.85.84.43Q73,101.15,76.91,99a1.28,1.28,0,0,0,.78-1.32,15.5,15.5,0,0,1,.09-2.72,29.17,29.17,0,0,1,.66-3.35c.11,0,.23-.16.32-.15,1.28.16,2.42-.43,3.62-.64a2.78,2.78,0,0,1-.24,1.07c-.21.88-.47,1.75-.61,2.64a21.34,21.34,0,0,0-.19,4.38,16.24,16.24,0,0,0,.62,3.75,18.08,18.08,0,0,0,6.3,9.64,19.16,19.16,0,0,0,13.38,4.12,23.59,23.59,0,0,0,5.56-1.26c1.17-.49,2.24-1.18,3.39-1.71,0,.16.12.28.29.27a13.59,13.59,0,0,1,1.93.28c.84.08,1.61.58,2.49.32,0,.29.15.38.37.53a29,29,0,0,1,3,1.85,21.3,21.3,0,0,1-3.31,1.07c-.34.07-.6.22-.5.64-.63-.37-1.27-.72-1.89-1.11a1.68,1.68,0,0,0-1.81-.1c-.5.25-1,.5-1.49.77a18,18,0,0,1-5.17,1.78,23.29,23.29,0,0,1-5.78.33,21.86,21.86,0,0,1-10-3,.82.82,0,0,0-.89-.1l-8.93,5.16a38.75,38.75,0,0,0,4.61,3.15,32,32,0,0,0,8.19,3.46,33.9,33.9,0,0,0,7.14,1.1,30,30,0,0,0,5.27-.24,31.37,31.37,0,0,0,7.46-1.8c1-.39,2-.81,3-1.21,0,.35.29.69.57.68a15.72,15.72,0,0,1,2.28.52,22,22,0,0,1,2.65.58c1.09.28,2,.91,3.17,1.13s1.59.75,1.5,1.43a12.54,12.54,0,0,0-.11,1.84,11,11,0,0,0,.34,2.44c.11.4.36.85.08,1.27a1.55,1.55,0,0,0,.24,2c.29.37.55.92.3,1.22-.59.74-.47,1.61-.69,2.42-.13.49-.31.91.35,1.11a.35.35,0,0,1,.23.36,3.32,3.32,0,0,0,.68,1.61,12.53,12.53,0,0,1,1.43,3.37,6.91,6.91,0,0,0,.78,1.5.49.49,0,0,0,.61.28c.16,0,.35-.16.44.08a.38.38,0,0,1-.15.46c-.56.34-.49,1-.75,1.47a.45.45,0,0,0,.05.61.62.62,0,0,0,.69,0,4.19,4.19,0,0,0,.56-.48c.69-.59.75-.58,1.3.15a2.54,2.54,0,0,0,.49.44,12.23,12.23,0,0,0,2.49,1.22,1.29,1.29,0,0,0,1.06.13.7.7,0,0,1,.86.42c.51,1.14,1.65,1.58,2.5,2.32a5.48,5.48,0,0,1,1,.85,2.63,2.63,0,0,0,1.92,1.32c.17,0,.32.21.48.32,1,.72,2.3,1,3.19,1.9,0,0,.15,0,.22,0a8.26,8.26,0,0,0,2.57.29c.42,0,.72.1.86.52a.7.7,0,0,0,1.13.4,2.19,2.19,0,0,1,2.58.33c.53.34.95.2,1-.44.05-.37.16-.5.54-.52a20.56,20.56,0,0,0,5.05-1.33c.67-.21,1-.84,1.57-1a13.6,13.6,0,0,0,3.47-2c.26-.18.81-.58.9.24a.48.48,0,0,1-.13.32c-.87.86-1.69,1.76-2.6,2.57-1.85,1.63-3.66,3.3-5.61,4.84-2.89,2.28-5.85,4.44-8.93,6.43l-.34.14-.17.2c-.53,0-.81.41-1.16.7-1,.54-2,1.13-3,1.69A43.76,43.76,0,0,1,138.6,177c-2.45,1-5,1.86-7.49,2.77-1.74.64-3.57,1-5.36,1.47-1.15.31-2.3.65-3.46.88-1.81.36-3.63.66-5.45,1a49,49,0,0,1-5.49.79c-1.6.08-3.19.3-4.79.38A4.55,4.55,0,0,0,104.53,184.51ZM24,127.72A27.65,27.65,0,0,0,25.55,136a24.07,24.07,0,0,0,6.23,9.38,24.35,24.35,0,0,0,8.09,4.95,23.77,23.77,0,0,0,8.31,1.56,24.22,24.22,0,0,0,9.23-1.78,23.7,23.7,0,0,0,10.29-7.82,24.2,24.2,0,0,0,4.44-9.88,25.32,25.32,0,0,0,.19-8.68c-.22-1.56-.29-1.58,1-2.36,2-1.2,4.07-2.35,6.1-3.54,1.71-1,3.41-2,5.11-3,.32-.18.39-.34.1-.6a5.63,5.63,0,0,1-.38-.45A27.22,27.22,0,0,1,78.15,103c-.18-.59-.33-.62-.84-.33-4,2.29-7.94,4.54-11.91,6.83a.59.59,0,0,1-.82,0A27.61,27.61,0,0,0,61,106.77a24.31,24.31,0,0,0-16.25-3.34,22.45,22.45,0,0,0-8.27,2.89,24.88,24.88,0,0,0-9.12,9A26.08,26.08,0,0,0,24,127.72Z"/><path class="cls-3" d="M100.85,6c.1.27.34.15.5.14,2.94-.23,5.82.46,8.74.51a30.75,30.75,0,0,1,5.61.76c1.87.39,3.75.74,5.65,1A17.85,17.85,0,0,1,124,9.1c1,.27,1.89.58,2.88.76.78.13,1.52.47,2.3.65a38.37,38.37,0,0,1,4.93,1.73c1.38.52,2.74,1.11,4.1,1.65,1.63.64,3.07,1.63,4.69,2.26.05,0,.08.11.13.17l-.18.05c-1.14-.18-2.2-.63-3.32-.9-3.11-.72-6.23-1.42-9.4-1.84a42.58,42.58,0,0,0-8.05-.49l-.17.1h-.1a3,3,0,0,0-3,1.38,5.4,5.4,0,0,0-1.14,4.06h-2.48a22.88,22.88,0,0,0-3.69-2.4,25.08,25.08,0,0,0-15.71-2.43,24.14,24.14,0,0,0-6.91,2.4c-.31.17-.5.26-.54-.26a4.63,4.63,0,0,0-2-3.57,2.37,2.37,0,0,0-1.71-.5c-1.94-.63-4-.36-6-.54a48.69,48.69,0,0,0-5.11.25c-2.36-.15-4.67.43-7,.66-1.16.11-2.28.53-3.46.55a1.67,1.67,0,0,1,1.09-.31,10.48,10.48,0,0,0,3.06-1.06,42.89,42.89,0,0,1,5-1.63c1.28-.34,2.57-.68,3.84-1a22,22,0,0,1,3.41-.74c.85-.1,1.68-.33,2.53-.46,1.53-.24,3.07-.48,4.6-.74s3.31-.16,5-.51c1-.23,2.18,0,3.27-.2.22,0,.49.15.65-.14Z"/><path class="cls-3" d="M148.21,19.27a10.2,10.2,0,0,1,2.23,1.31,92.29,92.29,0,0,1,7.7,5.66c2.29,1.79,4.32,3.83,6.41,5.82a80,80,0,0,1,6.58,7.54c1.4,1.72,2.49,3.64,3.77,5.43a54.85,54.85,0,0,1,3.85,6.64,51.72,51.72,0,0,1,2.58,5.16q1.28,3.24,2.46,6.51c.61,1.66.93,3.38,1.47,5,.41,1.26.7,2.56,1.07,3.83a20.11,20.11,0,0,1,.54,3c.17,1.23.46,2.45.62,3.68.13.92.3,1.84.42,2.77.24,1.9.19,3.81.54,5.7a21.38,21.38,0,0,1,.15,3.21c.08,2.8.1,5.6,0,8.4-.07,2.15-.36,4.29-.56,6.43-.1,1.08-.18,2.17-.3,3.25s-.41,2.4-.65,3.59c-.26,1.34-.41,2.7-.69,4s-.65,3-1,4.44c-.61,2.26-1.18,4.54-1.94,6.76-.46,1.33-1,2.64-1.51,4a59.24,59.24,0,0,1-2.59,6.15c-.89,1.82-1.82,3.63-2.8,5.4a77.63,77.63,0,0,1-4.25,6.77c-.69,1-1.6,1.85-2.38,2.79-1,1.16-1.89,2.37-2.93,3.49-.62.67-1.25,1.33-1.93,1.94-.09-.82-.64-.42-.9-.24a13.6,13.6,0,0,1-3.47,2c-.59.19-.9.82-1.57,1a20.56,20.56,0,0,1-5.05,1.33c-.38,0-.49.15-.54.52-.09.64-.51.78-1,.44a2.19,2.19,0,0,0-2.58-.33.7.7,0,0,1-1.13-.4c-.14-.42-.44-.52-.86-.52a8.26,8.26,0,0,1-2.57-.29c-.07,0-.18,0-.22,0-.89-.91-2.18-1.18-3.19-1.9-.16-.11-.31-.31-.48-.32a2.63,2.63,0,0,1-1.92-1.32,5.48,5.48,0,0,0-1-.85c-.85-.74-2-1.18-2.5-2.32a.7.7,0,0,0-.86-.42,1.29,1.29,0,0,1-1.06-.13A12.23,12.23,0,0,1,131.6,153a2.54,2.54,0,0,1-.49-.44c-.55-.73-.61-.74-1.3-.15a4.19,4.19,0,0,1-.56.48.62.62,0,0,1-.69,0,.45.45,0,0,1-.05-.61c.26-.48.19-1.13.75-1.47a.38.38,0,0,0,.15-.46c-.09-.24-.28-.13-.44-.08a.49.49,0,0,1-.61-.28,6.91,6.91,0,0,1-.78-1.5,12.53,12.53,0,0,0-1.43-3.37,3.32,3.32,0,0,1-.68-1.61.35.35,0,0,0-.23-.36c-.66-.2-.48-.62-.35-1.11.22-.81.1-1.68.69-2.42.25-.3,0-.85-.3-1.22a1.55,1.55,0,0,1-.24-2c.28-.42,0-.87-.08-1.27a11,11,0,0,1-.34-2.44,12.54,12.54,0,0,1,.11-1.84c.09-.68-.36-1.2-1.5-1.43s-2.08-.85-3.17-1.13a22,22,0,0,0-2.65-.58,15.72,15.72,0,0,0-2.28-.52c-.28,0-.53-.33-.57-.68l.15-.13.17-.11a22.78,22.78,0,0,0,2.54-1.45,40.68,40.68,0,0,0,3.41-2.44c.17-.13.56-.31.09-.58l-5.75-3.27-.15-.13-.14,0c-.1-.42.16-.57.5-.64a21.3,21.3,0,0,0,3.31-1.07l.14,0,.15.11h0l.15.14a5.09,5.09,0,0,1,.54.22l7.24,4.22c1.12.65,1.26.82,1,1.85a22.78,22.78,0,0,0,.26,10.06A23.48,23.48,0,0,0,133.91,144a24.12,24.12,0,0,0,13.55,7.47c.17.17.39.12.6.12h.14a8.49,8.49,0,0,0,2.51.28h2.22a7.88,7.88,0,0,0,2.51-.28l.14,0c.21,0,.43,0,.6-.12l.44,0,.16-.11a.35.35,0,0,0,.14,0c.25,0,.52.07.74-.13l.13,0a.49.49,0,0,0,.45-.13l.15,0,.16-.11a.35.35,0,0,0,.14,0,.57.57,0,0,0,.44-.11l.15,0a.54.54,0,0,0,.44-.13l.14,0,.16-.12.13,0,.31-.11.58-.19.16-.12.13,0,.17-.11a23.36,23.36,0,0,0,7.47-5,24.19,24.19,0,0,0,6.27-10.56c.33-.22.26-.57.26-.9l0-.27.12-.31,0-.29c.38-.44.25-1,.26-1.49.06-.73.16-1.45.19-2.19a29.48,29.48,0,0,0-.64-7.38.71.71,0,0,0-.25-.76l0-.27-.11-.18,0-.28-.12-.16a.51.51,0,0,0,0-.13l-.12-.31,0-.27a1.05,1.05,0,0,0,.52-.76,10.28,10.28,0,0,1,.54-2,5.85,5.85,0,0,0,.58-3.39,4.05,4.05,0,0,0-1.24-2.59,7.21,7.21,0,0,0-3.06-2c-1-.25-1.92-.67-2.85-.9a18.67,18.67,0,0,1-2.81-1.34,2.38,2.38,0,0,0-2.62.1,4.54,4.54,0,0,1-.61-.24,24.49,24.49,0,0,0-8.49-2.6,22.38,22.38,0,0,0-8.47.48,23.21,23.21,0,0,0-10.59,5.5.61.61,0,0,1-.88.08c-4-2.26-7.93-4.5-11.9-6.76-.64-.36-.72-.33-.94.44a26.49,26.49,0,0,1-3.09,6.73l-.14.17,0,.12-.13.15h0l-.15.29h0l-.14.15h0l-.14.17,0,.12-.13.15h0l-.14.16,0,.13-.12.15h0l-.14.15a12.54,12.54,0,0,1-2.21,2.5c-.88.26-1.65-.24-2.49-.32a13.59,13.59,0,0,0-1.93-.28c-.17,0-.26-.11-.29-.27h0l.15-.14h0l.14-.13h0l.28-.15a24.61,24.61,0,0,0,3.92-3.85,18.76,18.76,0,0,0,3.8-13.31,10,10,0,0,1-.3-2.61c1.23.33,2.37,1,3.72.88a14,14,0,0,1,.2,3.59,1.28,1.28,0,0,0,.79,1.32c1.64.91,3.27,1.86,4.9,2.8l3.11,1.79c.32.18.48.21.55-.27.21-1.35.35-2.71.45-4.08.1-1.52-.09-3,0-4.54a16.51,16.51,0,0,0,2.9-.33l.18-.11.29,0a1.12,1.12,0,0,0,1.53.05,4.42,4.42,0,0,1,1.66-.9,10.61,10.61,0,0,0,2.9-1.27c.82-.47,1.5-1.22,2.31-1.76s1.28-1.21,2.17-1.4a1.35,1.35,0,0,0,.82-.58c.67-.92,1.33-1.87,2-2.81a1.42,1.42,0,0,0,0-1.52,20.84,20.84,0,0,0,2.23-3.89,7.26,7.26,0,0,0,.83-2.52l0-.06c.3,0,.32-.27.48-.41a4.43,4.43,0,0,0,1.54-1,3.16,3.16,0,0,0,.76-2.81,21.65,21.65,0,0,0-.88-2.61c-.85-1.81-1.65-3.65-2.53-5.44a17.34,17.34,0,0,0-1.57-3c-1-1.26-1.89-2.55-2.88-3.79A14.28,14.28,0,0,0,145,56.06c-1.29-1-2.57-2.11-3.81-3.21a7.19,7.19,0,0,0-2.92-1.58,16.58,16.58,0,0,1-4.11-1.48,3.47,3.47,0,0,0-1.52-.67c-.88,0-1.73-.26-2.59-.31a10.91,10.91,0,0,0-2.79-.23c-1.41.33-2.89-.1-4.25.6a.7.7,0,0,1-1.05-.53l0-.14.11-.16a29,29,0,0,0,2.15-7.6,24.8,24.8,0,0,0-.36-8.11,32.28,32.28,0,0,0-1.65-5.1c.21-.54.7-.32,1-.26,1.29.23,2.61.34,3.89.63,1.87.42,3.78.6,5.66,1.06a22,22,0,0,0,7.42.48c.88-.09,1.76-.29,2.08-1.31.53,0,.9.47,1.45.45,1.33-.06,2.53-.14,2.94-1.82.31-1.24,1.2-2.31,1.31-3.62A26.48,26.48,0,0,0,148.21,19.27Z"/><path class="cls-4" d="M68.51,91.57a15.57,15.57,0,0,1-2.9-.72,8.61,8.61,0,0,0-2.41-.6,6.07,6.07,0,0,1-1.71-.72A21.4,21.4,0,0,1,56,85.71a20.41,20.41,0,0,1-3.6-4.39,23.38,23.38,0,0,1-3.6-7.95,33.86,33.86,0,0,1-.65-3.48A11.37,11.37,0,0,1,48.91,65a29.13,29.13,0,0,1,6.25-9.74,22.47,22.47,0,0,1,4.51-3.83,20.75,20.75,0,0,1,5.15-2.74,22.78,22.78,0,0,1,6.78-1.37,21.87,21.87,0,0,1,4.35.25,9.18,9.18,0,0,0,1.74,0,3.45,3.45,0,0,1,.72.08,7.63,7.63,0,0,0,2.71.52c.3-.08.41.36.7.28.81-.23,1.39.41,2.1.53a9.21,9.21,0,0,1,1.91.67,15.69,15.69,0,0,1,1.75.72,15.52,15.52,0,0,0,2.27,1c.08.34.32.35.6.3h0a29.83,29.83,0,0,1,2.8,2.6,15,15,0,0,1,2.38,3A25.68,25.68,0,0,1,98.76,66a11.43,11.43,0,0,1,.4,2.88,24.54,24.54,0,0,0-.09,2.71v.94c-.46.85-.24,1.82-.51,2.71C98,76.42,97.82,77.85,97,79a21.63,21.63,0,0,1-1.56,3,24,24,0,0,1-2.92,3,41,41,0,0,1-3.45,2.64,27.93,27.93,0,0,1-3,1.62c-.78.31-1.57.61-2.35.93-.46.18-1,.15-1.37.57-1.2.21-2.34.8-3.62.64-.09,0-.21.1-.32.15s-.37-.19-.47-.13c-.74.39-1.56,0-2.29.27a40.63,40.63,0,0,0-4.55,0A17.7,17.7,0,0,0,68.51,91.57ZM64.63,68.8a9.51,9.51,0,0,0,9.24,9.61,9.47,9.47,0,1,0-9.24-9.61ZM78.41,50.6c0,.2.23.38.5.58a5.89,5.89,0,0,1,1.67,1.18A6.54,6.54,0,0,0,82,53.76,12.47,12.47,0,0,1,84,55.5c1.2,1.34,2.19,2.86,3.36,4.24,1,1.21,1.33,2.86,2.08,4.26s.71,3.08,1.32,4.54c.17.4.24.82.75.89a1,1,0,0,0,.94-.61c.36-.63.63-1.32,1-2A13.57,13.57,0,0,1,94.54,65a3.08,3.08,0,0,0,1-2.09,8.69,8.69,0,0,0-1.21-3.95,25.22,25.22,0,0,0-3.7-4.77,11.68,11.68,0,0,0-4.28-2.65c-.38-.13-.62-.45-1-.52a9.43,9.43,0,0,1-2.61-.65,6.72,6.72,0,0,0-3.3-.64C78.86,49.69,78.43,49.78,78.41,50.6Z"/><path class="cls-5" d="M81.12,48.2a7.63,7.63,0,0,1-2.71-.52,3.45,3.45,0,0,0-.72-.08A4.67,4.67,0,0,0,77,45.51a13,13,0,0,1-.83-3.46,21.33,21.33,0,0,1-.27-5.86,20.47,20.47,0,0,1,2.15-8.9,26,26,0,0,1,4-5.74,16.25,16.25,0,0,0,1.82-2l.13,0,0-.07-.1.09a17.11,17.11,0,0,0-3.09.63C77,21.15,73,21.8,69.18,22.69a26.93,26.93,0,0,0-5,1.49,5,5,0,0,1-4,.25c-.26-.1-.54-.18-.64-.45a15.28,15.28,0,0,1-1.33-4.77,25,25,0,0,1,.17-4,10.12,10.12,0,0,0,1-1.33,1.16,1.16,0,0,1,.84-.52l2.86-.57c1.18,0,2.3-.44,3.46-.55,2.33-.23,4.64-.81,7-.66a.71.71,0,0,0,.91.41c1.21-.35,2.23.35,3.32.57a9,9,0,0,0,2.77.49.55.55,0,0,1,.61.31,2.17,2.17,0,0,0,1.27.93,2,2,0,0,0,2-.41,2.63,2.63,0,0,0,.21-2,2.37,2.37,0,0,1,1.71.5,4.63,4.63,0,0,1,2,3.57c0,.52.23.43.54.26a24.14,24.14,0,0,1,6.91-2.4,25.08,25.08,0,0,1,15.71,2.43,22.88,22.88,0,0,1,3.69,2.4c.55.48,1.11.94,1.63,1.46a25.18,25.18,0,0,1,4.56,5.9,5,5,0,0,0,.87,1.51,32.28,32.28,0,0,1,1.65,5.1,24.8,24.8,0,0,1,.36,8.11,29,29,0,0,1-2.15,7.6l-.11.16,0,.14a3.78,3.78,0,0,0-.78,1.58c-1.15-.26-2.23.39-3.37.33,0-.64.53-1,.82-1.51a21.89,21.89,0,0,0,3-8.82,21.75,21.75,0,0,0-14.5-22.9,21,21,0,0,0-13-.38,21.79,21.79,0,0,0-15.75,19.3A20.75,20.75,0,0,0,81.12,48.2Z"/><path class="cls-5" d="M161.33,150l-.13,0-.16.12-.58.19a.26.26,0,0,0-.31.11l-.13,0-.16.12-.14,0c-.17,0-.34,0-.44.13l-.15,0c-.17-.05-.33-.07-.44.11a.35.35,0,0,1-.14,0l-.16.11-.15,0c-.17,0-.33,0-.45.13l-.13,0c-.26,0-.53-.12-.74.13a.35.35,0,0,1-.14,0l-.16.11-.44,0c-.21,0-.43-.08-.6.12l-.14,0a6.27,6.27,0,0,0-2.51.28h-2.22a6.86,6.86,0,0,0-2.51-.28h-.14c-.17-.2-.39-.14-.6-.12A24.12,24.12,0,0,1,133.91,144a23.48,23.48,0,0,1-5.69-10.73,22.78,22.78,0,0,1-.26-10.06c.22-1,.08-1.2-1-1.85l-7.24-4.22a5.09,5.09,0,0,0-.54-.22l-.15-.14h0l-.15-.11-.14,0a29,29,0,0,0-3-1.85c-.22-.15-.41-.24-.37-.53a12.54,12.54,0,0,0,2.21-2.5l.14-.15h0l.12-.15,0-.13.14-.16h0l.13-.15,0-.12.14-.17h0l.14-.15h0a.28.28,0,0,0,.15-.29h0l.13-.15,0-.12.14-.17a26.49,26.49,0,0,0,3.09-6.73c.22-.77.3-.8.94-.44,4,2.26,7.94,4.5,11.9,6.76a.61.61,0,0,0,.88-.08,23.21,23.21,0,0,1,10.59-5.5,22.38,22.38,0,0,1,8.47-.48,24.49,24.49,0,0,1,8.49,2.6,4.54,4.54,0,0,0,.61.24c.06.23.26.28.43.38a24.36,24.36,0,0,1,8.48,8.4c.79,1.33,1.35,2.77,2,4.16,0,.09,0,.18,0,.27a.25.25,0,0,0,.12.31.51.51,0,0,1,0,.13l.12.16,0,.28.11.18a2.51,2.51,0,0,0,0,.27c-.05.3-.06.58.25.76a29.48,29.48,0,0,1,.64,7.38c0,.74-.13,1.46-.19,2.19a2.85,2.85,0,0,0-.26,1.49l0,.29a.27.27,0,0,0-.12.31l0,.27a1.19,1.19,0,0,0-.26.9A24.19,24.19,0,0,1,169,144.92a23.36,23.36,0,0,1-7.47,5Zm-31.15-22.27a25.47,25.47,0,0,0,.29,3.21A20.67,20.67,0,0,0,136,142.33a21.12,21.12,0,0,0,18.8,6.66,20.33,20.33,0,0,0,11.88-5.69c6.09-6,8.09-13.24,6-21.54a20.57,20.57,0,0,0-6.65-10.54,20.93,20.93,0,0,0-11.77-5.2,21.34,21.34,0,0,0-9.49,1,20,20,0,0,0-8.54,5.52.81.81,0,0,1-1.23.18c-3.56-2.08-7.14-4.12-10.69-6.2-.5-.29-.71-.2-.92.32a26.35,26.35,0,0,1-3.64,6.35c-.45.58-.31.78.24,1.09,3.58,2,7.14,4.12,10.72,6.17a.64.64,0,0,1,.36.89A20.12,20.12,0,0,0,130.18,127.73Z"/><path class="cls-5" d="M24,127.72a26.08,26.08,0,0,1,3.37-12.44,24.88,24.88,0,0,1,9.12-9,22.45,22.45,0,0,1,8.27-2.89A24.31,24.31,0,0,1,61,106.77a27.61,27.61,0,0,1,3.61,2.64.59.59,0,0,0,.82,0c4-2.29,7.95-4.54,11.91-6.83.51-.29.66-.26.84.33a27.22,27.22,0,0,0,6.13,10.76,5.63,5.63,0,0,0,.38.45c.29.26.22.42-.1.6-1.7,1-3.4,2-5.11,3-2,1.19-4.08,2.34-6.1,3.54-1.31.78-1.24.8-1,2.36a25.32,25.32,0,0,1-.19,8.68,24.2,24.2,0,0,1-4.44,9.88,23.7,23.7,0,0,1-10.29,7.82,24.22,24.22,0,0,1-9.23,1.78,23.77,23.77,0,0,1-8.31-1.56,24.35,24.35,0,0,1-8.09-4.95A24.07,24.07,0,0,1,25.55,136,27.65,27.65,0,0,1,24,127.72Zm23.8,21.53A21.77,21.77,0,0,0,61,145.09a21.41,21.41,0,0,0,9-16.64,19.65,19.65,0,0,0-.93-7.18.54.54,0,0,1,.29-.77c.68-.34,1.33-.74,2-1.12l8.9-5.14c.48-.27.58-.48.19-1a26,26,0,0,1-3.68-6.43c-.19-.48-.44-.56-.89-.29-3.47,2-7,4-10.42,6a1.15,1.15,0,0,1-1.73-.23,20.82,20.82,0,0,0-10.06-5.8A21.43,21.43,0,0,0,46,106a20,20,0,0,0-7.73,2.39,21.36,21.36,0,0,0-11,14.08,20.54,20.54,0,0,0-.28,9,21.87,21.87,0,0,0,20.75,17.8Z"/><path class="cls-5" d="M114.71,126.39l-.15.13c-1,.4-2,.82-3,1.21a31.37,31.37,0,0,1-7.46,1.8,30,30,0,0,1-5.27.24,33.9,33.9,0,0,1-7.14-1.1,32,32,0,0,1-8.19-3.46,38.75,38.75,0,0,1-4.61-3.15l8.93-5.16a.82.82,0,0,1,.89.1,21.86,21.86,0,0,0,10,3,23.29,23.29,0,0,0,5.78-.33,18,18,0,0,0,5.17-1.78c.49-.27,1-.52,1.49-.77a1.68,1.68,0,0,1,1.81.1c.62.39,1.26.74,1.89,1.11l.14,0,.15.13,5.75,3.27c.47.27.08.45-.09.58a40.68,40.68,0,0,1-3.41,2.44,22.78,22.78,0,0,1-2.54,1.45Zm-12.25.7a6.65,6.65,0,0,0,2.08-.25,29.06,29.06,0,0,0,11.28-4.17c.43-.27.46-.43,0-.69-1.17-.67-2.34-1.35-3.49-2a.66.66,0,0,0-.74,0,24.91,24.91,0,0,1-2.47,1.12,25.66,25.66,0,0,1-10.82,1.55A25.17,25.17,0,0,1,88.67,120a.66.66,0,0,0-.74,0c-1.13.68-2.28,1.34-3.44,2-.57.32-.5.48,0,.82a27.4,27.4,0,0,0,8.25,3.53A28.37,28.37,0,0,0,102.46,127.09Z"/><path class="cls-5" d="M82.38,90.78c.36-.42.91-.39,1.37-.57.78-.32,1.57-.62,2.35-.93a9.77,9.77,0,0,1-.39.94,15.48,15.48,0,0,0-1.62,10.06,16.14,16.14,0,0,0,5.55,9.7,15.82,15.82,0,0,0,8.75,3.78,15.17,15.17,0,0,0,8-1.22,16.19,16.19,0,0,0,9.08-9.79,19.33,19.33,0,0,0,.76-3.48,10.15,10.15,0,0,0,0-3.52,11.25,11.25,0,0,0-.79-3.32c-.08-.14,0-.38,0-.57.6.23,1.44.45,1.69.84.42.66,1,.1,1.32.44a.52.52,0,0,0,.13.06,10,10,0,0,0,.3,2.61,18.76,18.76,0,0,1-3.8,13.31,24.61,24.61,0,0,1-3.92,3.85.27.27,0,0,0-.28.15h0l-.14.13h0l-.15.14h0c-1.15.53-2.22,1.22-3.39,1.71a23.59,23.59,0,0,1-5.56,1.26,19.16,19.16,0,0,1-13.38-4.12,18.08,18.08,0,0,1-6.3-9.64,16.24,16.24,0,0,1-.62-3.75,21.34,21.34,0,0,1,.19-4.38c.14-.89.4-1.76.61-2.64A2.78,2.78,0,0,0,82.38,90.78Z"/><path class="cls-5" d="M68.51,91.57a17.7,17.7,0,0,1,2.62.14,29.54,29.54,0,0,0-.52,7.08c0,.54.17.59.59.35l3.31-1.9A.85.85,0,0,0,75,96.5a29.68,29.68,0,0,1,.66-4.79c.73-.31,1.55.12,2.29-.27.1-.06.31.08.47.13a29.17,29.17,0,0,0-.66,3.35,15.5,15.5,0,0,0-.09,2.72A1.28,1.28,0,0,1,76.91,99q-3.87,2.19-7.71,4.41c-.74.42-.69.4-.84-.43a32,32,0,0,1,.15-11.37Z"/><path class="cls-3" d="M11.47,93.33l0-3.48c0-.14,0-.3.15-.37A26,26,0,0,1,11.47,93.33Z"/><path class="cls-3" d="M147.25,172.47a2.1,2.1,0,0,1-1.16.7C146.44,172.88,146.72,172.47,147.25,172.47Z"/><path class="cls-3" d="M12.06,84.49c0-.6-.2-1.22.12-1.8A5.74,5.74,0,0,1,12.06,84.49Z"/><path class="cls-3" d="M11.76,87.73c0-.5-.18-1,.12-1.49A3.57,3.57,0,0,1,11.76,87.73Z"/><path class="cls-3" d="M11.61,89.36c0-.45-.16-.92.12-1.35C11.7,88.46,11.85,88.93,11.61,89.36Z"/><path class="cls-3" d="M12.21,82.58c0-.3-.18-.64.11-.91C12.31,82,12.41,82.3,12.21,82.58Z"/><path class="cls-3" d="M13.53,74.89c0-.25-.15-.54.12-.75C13.64,74.39,13.73,74.67,13.53,74.89Z"/><path class="cls-3" d="M147.76,172.13c-.1.08-.16.26-.34.14Z"/><path class="cls-3" d="M12.35,81.53c0-.25-.15-.54.12-.75C12.46,81,12.54,81.31,12.35,81.53Z"/><path class="cls-3" d="M15.27,124.34c-.27-.15-.08-.41-.16-.61C15.33,123.89,15.27,124.13,15.27,124.34Z"/><path class="cls-3" d="M15.12,123.74c-.26-.14-.08-.39-.15-.58C15.19,123.31,15.12,123.54,15.12,123.74Z"/><path class="cls-3" d="M13.68,74c0-.21-.14-.45.12-.62C13.8,73.62,13.85,73.84,13.68,74Z"/><path class="cls-3" d="M12.5,80.66c0-.21-.14-.45.12-.62C12.62,80.26,12.67,80.48,12.5,80.66Z"/><path class="cls-3" d="M13.83,73.28c0-.21-.15-.45.11-.61A.77.77,0,0,1,13.83,73.28Z"/><path class="cls-3" d="M12.65,79.77c0-.21-.14-.45.11-.61A.77.77,0,0,1,12.65,79.77Z"/><path class="cls-3" d="M69.26,179.48c-.16,0-.34.1-.44-.12A.48.48,0,0,1,69.26,179.48Z"/><path class="cls-3" d="M17.17,61.77c.07-.15-.06-.38.17-.47C17.34,61.48,17.36,61.66,17.17,61.77Z"/><path class="cls-3" d="M13.93,72.69c.06-.16-.07-.37.16-.47C14.1,72.4,14.12,72.58,13.93,72.69Z"/><path class="cls-3" d="M67.64,178.88c-.16,0-.35.11-.44-.11A.5.5,0,0,1,67.64,178.88Z"/><path class="cls-3" d="M16.74,62.94c.05-.16-.07-.37.16-.46C16.9,62.65,16.92,62.83,16.74,62.94Z"/><path class="cls-3" d="M15.42,124.92c-.23-.1-.12-.29-.12-.46A.52.52,0,0,1,15.42,124.92Z"/><path class="cls-3" d="M15.56,125.37c-.23-.09-.09-.31-.15-.46C15.59,125,15.57,125.2,15.56,125.37Z"/><path class="cls-3" d="M68.39,179.18c-.17,0-.35.11-.45-.12A.53.53,0,0,1,68.39,179.18Z"/><path class="cls-3" d="M59.38,175.64c-.12,0-.25.05-.3-.12Z"/><path class="cls-3" d="M64.4,177.7c-.13,0-.25.05-.31-.12Z"/><path class="cls-3" d="M65.15,178c-.14,0-.27.05-.32-.12Z"/><path class="cls-3" d="M65.59,178.15c-.13,0-.26,0-.32-.12Z"/><path class="cls-3" d="M66,178.29c-.13,0-.25.05-.3-.11Z"/><path class="cls-3" d="M66.77,178.59c-.13,0-.26,0-.32-.12Z"/><path class="cls-3" d="M67.21,178.78c-.12,0-.27,0-.31-.16A.31.31,0,0,1,67.21,178.78Z"/><path class="cls-3" d="M17.37,61.19c0-.14-.06-.27.12-.33Z"/><path class="cls-3" d="M16.93,62.37c0-.13-.06-.27.12-.33Z"/><path class="cls-3" d="M68.83,179.37c-.11,0-.26,0-.31-.16A.31.31,0,0,1,68.83,179.37Z"/><path class="cls-3" d="M63.66,177.41c-.13,0-.25.05-.3-.12Z"/><path class="cls-3" d="M53.64,172.87c-.12,0-.25,0-.31-.16A.33.33,0,0,1,53.64,172.87Z"/><path class="cls-3" d="M53.93,173c-.12,0-.26,0-.31-.15A.34.34,0,0,1,53.93,173Z"/><path class="cls-3" d="M54.22,173.17c-.11,0-.24,0-.29-.16A.29.29,0,0,1,54.22,173.17Z"/><path class="cls-3" d="M54.51,173.28c-.13,0-.25.05-.3-.12Z"/><path class="cls-3" d="M56,174.05c-.12,0-.28,0-.32-.16A.34.34,0,0,1,56,174.05Z"/><path class="cls-3" d="M56.29,174.16c-.13,0-.25.06-.31-.12Z"/><path class="cls-3" d="M58.5,175.24c-.11,0-.26,0-.31-.16A.3.3,0,0,1,58.5,175.24Z"/><path class="cls-3" d="M59.09,175.53c-.11,0-.27,0-.31-.16A.3.3,0,0,1,59.09,175.53Z"/><path class="cls-3" d="M22.39,50c0-.11,0-.15.12-.18Z"/><path class="cls-3" d="M21.94,50.87c0-.11,0-.16.12-.19Z"/><path class="cls-3" d="M21.79,51.16c0-.11,0-.15.13-.18Z"/><path class="cls-3" d="M53,172.58l-.15-.14Z"/><path class="cls-3" d="M53.2,172.69c-.11,0-.14,0-.17-.12Z"/><path class="cls-3" d="M55.4,173.76l-.15-.14Z"/><path class="cls-3" d="M55.57,173.87c-.11,0-.15,0-.18-.12Z"/><path class="cls-3" d="M57.19,174.6c-.1,0-.15,0-.18-.11Z"/><path class="cls-3" d="M57.48,174.75c-.11,0-.15,0-.17-.11Z"/><path class="cls-3" d="M58.07,175.05c-.11,0-.15,0-.17-.12Z"/><path class="cls-3" d="M58.67,175.34c-.11,0-.15,0-.18-.12Z"/><path class="cls-3" d="M64,177.55c-.1,0-.14,0-.17-.1Z"/><path class="cls-3" d="M64.72,177.85c-.11,0-.15,0-.18-.11Z"/><path class="cls-3" d="M66.34,178.44c-.1,0-.15,0-.18-.11Z"/><path class="cls-3" d="M67.94,179.07l-.15-.15Z"/><path class="cls-3" d="M57.78,174.9c-.1,0-.15,0-.18-.12Z"/><path class="cls-5" d="M148.21,19.27a26.48,26.48,0,0,1-.2,3.88c-.11,1.31-1,2.38-1.31,3.62-.41,1.68-1.61,1.76-2.94,1.82-.55,0-.92-.45-1.45-.45-.53-.25-1.05-.51-1.58-.75a61.46,61.46,0,0,0-6.94-2.57c-4.67-1.5-9.34-3-14-4.62a4.32,4.32,0,0,1-2.17-1.52,5.4,5.4,0,0,1,1.14-4.06,3,3,0,0,1,3-1.38c.08.8.61,1.25,1.64,1.46a4.59,4.59,0,0,1,3,1.64,4.35,4.35,0,0,0,.56.47c.88.89,2.16.93,3.18,1.56,1.2.73,2.65.87,3.82,1.8s3,1.23,4.36,2a2.06,2.06,0,0,0,.57.3A5.25,5.25,0,0,1,141.64,24a5.36,5.36,0,0,0,2.81,1.19.31.31,0,0,0,.26-.11c.51-.86,1.45-1.48,1.67-2.44a24.66,24.66,0,0,0,1.09-4.24c.22.22.53.37.57.73,0,.1.06.18.17.2Z"/><path class="cls-6" d="M147.47,18.35a24.66,24.66,0,0,1-1.09,4.24c-.22,1-1.16,1.58-1.67,2.44a.31.31,0,0,1-.26.11A5.36,5.36,0,0,1,141.64,24,5.25,5.25,0,0,0,139,22.52a2.06,2.06,0,0,1-.57-.3c-1.39-.82-3.1-1-4.36-2s-2.62-1.07-3.82-1.8c-1-.63-2.3-.67-3.18-1.56a4.35,4.35,0,0,1-.56-.47,4.59,4.59,0,0,0-3-1.64c-1-.21-1.56-.66-1.64-1.46h.1l.17-.1a42.58,42.58,0,0,1,8.05.49c3.17.42,6.29,1.12,9.4,1.84,1.12.27,2.18.72,3.32.9a6.73,6.73,0,0,0,2,.61c.48.12,1,.25,1.44.36A1.42,1.42,0,0,1,147.47,18.35Z"/><path class="cls-2" d="M144.92,17a6.73,6.73,0,0,1-2-.61l.18-.05A3,3,0,0,1,144.92,17Z"/><path class="cls-3" d="M148.21,19.28c-.11,0-.15-.1-.17-.2Z"/><path class="cls-2" d="M117.66,18.68a4.32,4.32,0,0,0,2.17,1.52c4.62,1.65,9.29,3.12,14,4.62a61.46,61.46,0,0,1,6.94,2.57c.53.24,1.05.5,1.58.75-.32,1-1.2,1.22-2.08,1.31a22,22,0,0,1-7.42-.48c-1.88-.46-3.79-.64-5.66-1.06-1.28-.29-2.6-.4-3.89-.63-.32-.06-.81-.28-1,.26a5,5,0,0,1-.87-1.51,25.18,25.18,0,0,0-4.56-5.9c-.52-.52-1.08-1-1.63-1.46Z"/><path class="cls-6" d="M84.62,11.91a2.63,2.63,0,0,1-.21,2,2,2,0,0,1-2,.41,2.17,2.17,0,0,1-1.27-.93.55.55,0,0,0-.61-.31,9,9,0,0,1-2.77-.49c-1.09-.22-2.11-.92-3.32-.57a.71.71,0,0,1-.91-.41,48.69,48.69,0,0,1,5.11-.25C80.65,11.55,82.68,11.28,84.62,11.91Z"/><path class="cls-5" d="M122.1,13.14l-.17.1Z"/><path class="cls-4" d="M118.6,93.2a.52.52,0,0,1-.13-.06c-.34-.34-.9.22-1.32-.44-.25-.39-1.09-.61-1.69-.84h0l-.16-.22a12.25,12.25,0,0,1-3-1.63A15.4,15.4,0,0,0,111,89a19.45,19.45,0,0,1-2.12-1.58,18,18,0,0,1-2.36-2.15A16,16,0,0,1,104,81.69c-.21-.45-.39-.92-.64-1.35s-.22-1.07-.62-1.48c0-.24-.12-.4-.21-.59a13.68,13.68,0,0,1-1-3,14.09,14.09,0,0,0-.26-3,22.2,22.2,0,0,1,.25-3.64,21,21,0,0,1,2-7.17A16.37,16.37,0,0,1,107,56.21a27.3,27.3,0,0,0,2.53-2.4h0a.14.14,0,0,0,.15-.15h0a.14.14,0,0,0,.16-.16v0a.79.79,0,0,0,.65-.31h0c.14,0,.29,0,.36-.14h0l.17-.14a14.05,14.05,0,0,1,1.75-.73c1-.3,2-.75,3-1.09.52-.18,1-.59,1.67-.3.21,0,.39,0,.35-.27h0c1.14.06,2.22-.59,3.38-.33l.62.06c0,.45-.2.54-.61.59-.79.09-1.32.83-1,1.37A3,3,0,0,0,122,53.79a1.86,1.86,0,0,1,.71.37,4.4,4.4,0,0,0,1.64.8c2.55.7,4.85,2.07,7.37,2.85a.67.67,0,0,1,.25.16c.7.69,1.63,1.06,2.34,1.79,1.09,1.12,2.37,2,3,3.57.41,1,1,2,1.46,3a15,15,0,0,1,.85,6.09,11.07,11.07,0,0,1-.61,4.12c-.26.65-.38,1.39-.66,2.08a7.58,7.58,0,0,0-.57,2c-.17,1.3-.21,2.61-.33,3.91a4,4,0,0,0-.12,1.38,7.67,7.67,0,0,1,.11,2.57,4.86,4.86,0,0,0,.32,2.77c.06.13.06.23-.1.28s-.39.14-.3.4.31.17.5.2.39-.08.52.13c0,.18-.19.15-.3.16s-.44,0-.53.3c0,0,0,.17,0,.19.23.14.42,0,.62-.1a24.75,24.75,0,0,0,6.18-3.93,22.35,22.35,0,0,0,4.44-5.1,20,20,0,0,0,2.43-4.42,3.66,3.66,0,0,1,.91-1.78,7.26,7.26,0,0,1-.83,2.52A20.84,20.84,0,0,1,149.07,84c-.95,1.68-2.46,2.89-3.65,4.35a15,15,0,0,1-3.12,2.44A12.57,12.57,0,0,1,140.76,92a55.13,55.13,0,0,1-5.11,2.22l-.29,0-.18.11a16.51,16.51,0,0,1-2.9.33.84.84,0,0,1-.75.27c-.65,0-1.3,0-1.95,0-.34.09-.55-.32-.83-.28-1.26.17-2.44-.46-3.68-.3-.25-.25-.5-.58-.89-.44a7.77,7.77,0,0,1-1.86.13C121,94.25,119.83,93.53,118.6,93.2Zm-2.17-22.54c-.15,5.21,4.12,9.6,8.92,9.52,5.6-.09,9.8-3.8,9.83-9.66,0-4.91-3.54-9-9.25-9.23A9.46,9.46,0,0,0,116.43,70.66Z"/><path class="cls-7" d="M152.13,77.61a3.66,3.66,0,0,0-.91,1.78,20,20,0,0,1-2.43,4.42,22.35,22.35,0,0,1-4.44,5.1,24.75,24.75,0,0,1-6.18,3.93c-.2.09-.39.24-.62.1,0,0,0-.14,0-.19.09-.26.3-.3.53-.3s.26,0,.3-.16c-.13-.21-.35-.1-.52-.13s-.42,0-.5-.2.09-.35.3-.4.16-.15.1-.28a4.86,4.86,0,0,1-.32-2.77,7.67,7.67,0,0,0-.11-2.57,4,4,0,0,1,.12-1.38c.12-1.3.16-2.61.33-3.91a7.58,7.58,0,0,1,.57-2c.28-.69.4-1.43.66-2.08a11.07,11.07,0,0,0,.61-4.12,15,15,0,0,0-.85-6.09c-.42-1-1.05-2-1.46-3-.64-1.58-1.92-2.45-3-3.57-.71-.73-1.64-1.1-2.34-1.79a.67.67,0,0,0-.25-.16c-2.52-.78-4.82-2.15-7.37-2.85a4.4,4.4,0,0,1-1.64-.8,1.86,1.86,0,0,0-.71-.37,3,3,0,0,1-1.77-1.54c-.32-.54.21-1.28,1-1.37.41-.05.65-.14.61-.59a.28.28,0,0,0,.13,0A3.38,3.38,0,0,0,124,50h1.58a2,2,0,0,0,1.06.23,26.12,26.12,0,0,1,8.6,1.63,25,25,0,0,1,8.67,5.41c1.22,1.15,2.35,2.41,3.52,3.63h0a9.41,9.41,0,0,0,1.91,2.8h0c0,.1,0,.15.13.15h0a.38.38,0,0,0,.3.43h0c.59,1.32,1.21,2.62,1.76,4a11.84,11.84,0,0,1,.68,8.44,1.49,1.49,0,0,0-.09.86Z"/><path class="cls-2" d="M125.6,50H124c-.59-.32-1.23-.08-1.84-.12-.24,0-.2.23-.24.38a.28.28,0,0,1-.13,0l-.62-.06a3.65,3.65,0,0,1,.77-1.58.7.7,0,0,0,1.05.53c1.36-.7,2.84-.27,4.25-.6a10.91,10.91,0,0,1,2.79.23c.86,0,1.71.28,2.59.31a3.47,3.47,0,0,1,1.52.67,16.58,16.58,0,0,0,4.11,1.48,7.19,7.19,0,0,1,2.92,1.58c1.24,1.1,2.52,2.17,3.81,3.21a14.28,14.28,0,0,1,2.07,2.47c1,1.24,1.92,2.53,2.88,3.79a17.34,17.34,0,0,1,1.57,3c.88,1.79,1.68,3.63,2.53,5.44a21.65,21.65,0,0,1,.88,2.61,3.16,3.16,0,0,1-.76,2.81,4.43,4.43,0,0,1-1.54,1c0-.9.48-1.71.45-2.64a24,24,0,0,0-.6-4.48,31.47,31.47,0,0,0-2-5c-.12-.28-.26-.64-.64-.75h0c0-.23-.05-.39-.3-.43h0c0-.11,0-.15-.13-.15h0a4.48,4.48,0,0,0-1-1.82c-.25-.36-.31-.9-.87-1h0a.87.87,0,0,0-.2-.6,41.89,41.89,0,0,0-4.77-4.93,25.11,25.11,0,0,0-8.61-4.5,21.68,21.68,0,0,0-3.28-.67A19,19,0,0,0,125.6,50Z"/><path class="cls-2" d="M174.76,119.17c-.68-1.39-1.24-2.83-2-4.16a24.36,24.36,0,0,0-8.48-8.4c-.17-.1-.37-.15-.43-.38a2.38,2.38,0,0,1,2.62-.1,18.67,18.67,0,0,0,2.81,1.34c.93.23,1.87.65,2.85.9a7.21,7.21,0,0,1,3.06,2A4.05,4.05,0,0,1,176.4,113a5.85,5.85,0,0,1-.58,3.39,10.28,10.28,0,0,0-.54,2A1.05,1.05,0,0,1,174.76,119.17Z"/><path class="cls-5" d="M122.32,94.08a7.77,7.77,0,0,0,1.86-.13c.39-.14.64.19.89.44-.07.67.12,1.32.11,2a1,1,0,0,0,.57.93c1.07.6,2.13,1.21,3.19,1.82.66.37.77.31.79-.47a23.85,23.85,0,0,0-.15-3.68c.65,0,1.3,0,1.95,0a.84.84,0,0,0,.75-.27c-.05,1.51.14,3,0,4.54-.1,1.37-.24,2.73-.45,4.08-.07.48-.23.45-.55.27l-3.11-1.79c-1.63-.94-3.26-1.89-4.9-2.8a1.28,1.28,0,0,1-.79-1.32A14,14,0,0,0,122.32,94.08Z"/><path class="cls-2" d="M135.65,94.21A55.13,55.13,0,0,0,140.76,92a12.57,12.57,0,0,0,1.54-1.18,15,15,0,0,0,3.12-2.44c1.19-1.46,2.7-2.67,3.65-4.35a1.42,1.42,0,0,1,0,1.52c-.65.94-1.31,1.89-2,2.81a1.35,1.35,0,0,1-.82.58c-.89.19-1.45.92-2.17,1.4s-1.49,1.29-2.31,1.76a10.61,10.61,0,0,1-2.9,1.27,4.42,4.42,0,0,0-1.66.9A1.12,1.12,0,0,1,135.65,94.21Z"/><path class="cls-4" d="M149.8,64.3c.38.11.52.47.64.75a31.47,31.47,0,0,1,2,5,24,24,0,0,1,.6,4.48c0,.93-.46,1.74-.45,2.64-.16.14-.18.44-.48.41a1.49,1.49,0,0,1,.09-.86,11.84,11.84,0,0,0-.68-8.44C151,66.92,150.39,65.62,149.8,64.3Z"/><path class="cls-2" d="M152.93,151.92a6.27,6.27,0,0,1,2.51-.28A7.88,7.88,0,0,1,152.93,151.92Z"/><path class="cls-2" d="M148.2,151.63a6.86,6.86,0,0,1,2.51.28A8.49,8.49,0,0,1,148.2,151.63Z"/><path class="cls-2" d="M175.68,132.59a2.85,2.85,0,0,1,.26-1.49C175.93,131.61,176.06,132.15,175.68,132.59Z"/><path class="cls-2" d="M175.24,134.36a1.19,1.19,0,0,1,.26-.9C175.5,133.79,175.57,134.14,175.24,134.36Z"/><path class="cls-2" d="M175.49,121.53c-.31-.18-.3-.46-.25-.76A.71.71,0,0,1,175.49,121.53Z"/><path class="cls-2" d="M156.92,151.33c.21-.25.48-.13.74-.13C157.44,151.4,157.17,151.31,156.92,151.33Z"/><path class="cls-2" d="M155.58,151.62c.17-.2.39-.14.6-.12C156,151.67,155.79,151.62,155.58,151.62Z"/><path class="cls-2" d="M147.46,151.5c.21,0,.43-.08.6.12C147.85,151.62,147.63,151.67,147.46,151.5Z"/><path class="cls-2" d="M158.69,150.89c.11-.18.27-.16.44-.11A.57.57,0,0,1,158.69,150.89Z"/><path class="cls-2" d="M157.79,151.18c.12-.17.28-.15.45-.13A.49.49,0,0,1,157.79,151.18Z"/><path class="cls-2" d="M159.28,150.74c.1-.17.27-.16.44-.13A.54.54,0,0,1,159.28,150.74Z"/><path class="cls-2" d="M118.54,110.3a.28.28,0,0,1-.15.29Z"/><path class="cls-2" d="M110.9,113.12a.27.27,0,0,1,.28-.15Z"/><path class="cls-2" d="M174.92,119.75a.25.25,0,0,1-.12-.31Z"/><path class="cls-2" d="M175.53,133.19a.27.27,0,0,1,.12-.31Z"/><path class="cls-2" d="M160.15,150.44a.26.26,0,0,1,.31-.11Z"/><path class="cls-2" d="M122,48.51l.11-.16Z"/><path class="cls-2" d="M118.25,110.74l-.14.17Z"/><path class="cls-2" d="M118.39,110.59l-.14.15Z"/><path class="cls-2" d="M118.68,110.15l-.13.15Z"/><path class="cls-2" d="M118.85,109.86l-.14.17Z"/><path class="cls-2" d="M135.18,94.36l.18-.11Z"/><path class="cls-2" d="M115.17,118.54l-.15-.13Z"/><path class="cls-2" d="M119,116.81l.15.14Z"/><path class="cls-2" d="M114.71,126.39l.17-.11Z"/><path class="cls-2" d="M118.83,116.69l.15.11Z"/><path class="cls-2" d="M175.2,120.5l-.11-.18Z"/><path class="cls-2" d="M110.59,113.41l.15-.14Z"/><path class="cls-2" d="M156.62,151.47l.16-.11Z"/><path class="cls-2" d="M161.33,150l.17-.11Z"/><path class="cls-2" d="M161,150.14l.16-.12Z"/><path class="cls-2" d="M175.06,120l-.12-.16Z"/><path class="cls-2" d="M159.86,150.59l.16-.12Z"/><path class="cls-2" d="M110.75,113.26l.14-.13Z"/><path class="cls-2" d="M118,111.18l-.14.16Z"/><path class="cls-2" d="M158.39,151l.16-.11Z"/><path class="cls-2" d="M117.65,111.63l-.14.15Z"/><path class="cls-2" d="M117.78,111.47l-.12.15Z"/><path class="cls-2" d="M118.08,111l-.13.15Z"/><path class="cls-6" d="M110.54,53.22h0c-.24,0-.57-.08-.65.31v0l-.16.16h0l-.15.15h0c-.61,0-.95.51-1.33.83-1.43,1.22-3,2.29-3.83,4.09a18,18,0,0,1-.92,1.65A9.25,9.25,0,0,0,102,63.55c-.49,2.52-.84,5-1.09,7.6-.14,1.42-.12,1.43-1.58,1.36a1.52,1.52,0,0,1-.21,0v-.94c.13-.07.27-.15.27-.32a48,48,0,0,0-.08-5.5,41.22,41.22,0,0,1-.66-4.57,2.38,2.38,0,0,0-.84-2,3.69,3.69,0,0,1-1-1.68,2.91,2.91,0,0,0-.47-.82c-1.18-1.47-2.61-2.7-3.89-4.08a2.59,2.59,0,0,0-2-.85h0a.54.54,0,0,0-.6-.3,15.52,15.52,0,0,1-2.27-1,15.69,15.69,0,0,0-1.75-.72A9.21,9.21,0,0,0,83.92,49c-.71-.12-1.29-.76-2.1-.53-.29.08-.4-.36-.7-.28a20.75,20.75,0,0,1-2.65-12A21.79,21.79,0,0,1,94.22,17a21,21,0,0,1,13,.38,21.75,21.75,0,0,1,14.5,22.9,21.89,21.89,0,0,1-3,8.82c-.29.49-.79.87-.82,1.51h0c-.2,0-.26.15-.35.27-.62-.29-1.15.12-1.67.3-1,.34-2,.79-3,1.09a14.05,14.05,0,0,0-1.75.73l-.17.14h0Z"/><path class="cls-6" d="M104,81.69a16,16,0,0,0,2.53,3.61,18,18,0,0,0,2.36,2.15A19.45,19.45,0,0,0,111,89a15.4,15.4,0,0,1,1.22,1,12.25,12.25,0,0,0,3,1.63c0,.11,0,.2.16.22h0c0,.19-.09.43,0,.57a11.25,11.25,0,0,1,.79,3.32,10.15,10.15,0,0,1,0,3.52,19.33,19.33,0,0,1-.76,3.48,16.19,16.19,0,0,1-9.08,9.79,15.17,15.17,0,0,1-8,1.22A15.82,15.82,0,0,1,89.64,110a16.14,16.14,0,0,1-5.55-9.7,15.48,15.48,0,0,1,1.62-10.06,9.77,9.77,0,0,0,.39-.94,27.93,27.93,0,0,0,3-1.62A41,41,0,0,0,92.54,85a24,24,0,0,0,2.92-3,1.1,1.1,0,0,0,.36,0,15.13,15.13,0,0,1,6.1-.48A5.5,5.5,0,0,0,104,81.69Z"/><path class="cls-5" d="M64.63,68.8a9.27,9.27,0,1,1,9.24,9.61A9.51,9.51,0,0,1,64.63,68.8Zm15-6.15.14.15c.33.7,1.07,1,1.55,1.55-.4-.64-.72-1.36-1.56-1.54a.13.13,0,0,0-.14-.15l-.06,0Zm2.51,3.69c0,.39,0,.77,0,1.14s.12.55.38.51.18-.36.14-.57A1.9,1.9,0,0,0,82.12,66.34Z"/><path class="cls-7" d="M78.41,50.6c0-.82.45-.91,1-.91a6.72,6.72,0,0,1,3.3.64,9.43,9.43,0,0,0,2.61.65c.41.07.65.39,1,.52a11.68,11.68,0,0,1,4.28,2.65,25.22,25.22,0,0,1,3.7,4.77,8.69,8.69,0,0,1,1.21,3.95,3.08,3.08,0,0,1-1,2.09,13.57,13.57,0,0,0-1.06,1.89c-.36.65-.63,1.34-1,2a1,1,0,0,1-.94.61c-.51-.07-.58-.49-.75-.89-.61-1.46-.55-3.12-1.32-4.54s-1-3-2.08-4.26c-1.17-1.38-2.16-2.9-3.36-4.24A12.47,12.47,0,0,0,82,53.76a6.54,6.54,0,0,1-1.38-1.4,5.89,5.89,0,0,0-1.67-1.18C78.64,51,78.4,50.8,78.41,50.6Z"/><path class="cls-6" d="M75.68,91.71A29.68,29.68,0,0,0,75,96.5a.85.85,0,0,1-.51.74l-3.31,1.9c-.42.24-.58.19-.59-.35a29.54,29.54,0,0,1,.52-7.08A40.63,40.63,0,0,1,75.68,91.71Z"/><path class="cls-5" d="M104,81.69a5.5,5.5,0,0,1-2.1-.18,15.13,15.13,0,0,0-6.1.48,1.1,1.1,0,0,1-.36,0A21.63,21.63,0,0,0,97,79a9,9,0,0,1,1.8-.13c1.32,0,2.63,0,3.94,0,.4.41.35,1,.62,1.48S103.81,81.24,104,81.69Z"/><path class="cls-5" d="M99.08,72.48a1.52,1.52,0,0,0,.21,0c1.46.07,1.44.06,1.58-1.36.25-2.55.6-5.08,1.09-7.6a9.25,9.25,0,0,1,1.53-3.17,18,18,0,0,0,.92-1.65c.84-1.8,2.4-2.87,3.83-4.09.38-.32.72-.83,1.33-.83a27.3,27.3,0,0,1-2.53,2.4,16.37,16.37,0,0,0-3.49,5.23,21,21,0,0,0-2,7.17,22.2,22.2,0,0,0-.25,3.64,14.09,14.09,0,0,1,.26,3,27.69,27.69,0,0,0-3,0C98.84,74.3,98.62,73.33,99.08,72.48Z"/><path class="cls-2" d="M98.57,75.19a27.69,27.69,0,0,1,3,0,13.68,13.68,0,0,0,1,3c.09.19.25.35.21.59-1.31,0-2.62,0-3.94,0A9,9,0,0,0,97,79C97.82,77.85,98,76.42,98.57,75.19Z"/><path class="cls-5" d="M90.44,51.74a2.59,2.59,0,0,1,2,.85c1.28,1.38,2.71,2.61,3.89,4.08a2.91,2.91,0,0,1,.47.82,3.69,3.69,0,0,0,1,1.68,2.38,2.38,0,0,1,.84,2,41.22,41.22,0,0,0,.66,4.57,48,48,0,0,1,.08,5.5c0,.17-.14.25-.27.32a24.54,24.54,0,0,1,.09-2.71,11.43,11.43,0,0,0-.4-2.88,25.68,25.68,0,0,0-3.14-8.62,15,15,0,0,0-2.38-3A29.83,29.83,0,0,0,90.44,51.74Z"/><path class="cls-5" d="M89.85,51.44a.54.54,0,0,1,.6.3C90.17,51.79,89.93,51.78,89.85,51.44Z"/><path class="cls-2" d="M83.88,19.57l.1-.09,0,.07-.13,0Z"/><path class="cls-6" d="M130.18,127.73a20.12,20.12,0,0,1,.92-6.37.64.64,0,0,0-.36-.89c-3.58-2-7.14-4.12-10.72-6.17-.55-.31-.69-.51-.24-1.09a26.35,26.35,0,0,0,3.64-6.35c.21-.52.42-.61.92-.32,3.55,2.08,7.13,4.12,10.69,6.2a.81.81,0,0,0,1.23-.18A20,20,0,0,1,144.8,107a21.34,21.34,0,0,1,9.49-1,20.93,20.93,0,0,1,11.77,5.2,20.57,20.57,0,0,1,6.65,10.54c2.1,8.3.1,15.54-6,21.54A20.33,20.33,0,0,1,154.84,149a21.12,21.12,0,0,1-18.8-6.66,20.67,20.67,0,0,1-5.57-11.39A25.47,25.47,0,0,1,130.18,127.73Zm26-17.36c-.42-.07-.84-.17-1.26-.21a1.21,1.21,0,0,1-1-.57,2.61,2.61,0,0,0-2-1.36,5.81,5.81,0,0,0-3.15.31,1,1,0,0,1-.83,0,2.68,2.68,0,0,0-2.16-.19c-.2.1-.47.22-.45.44s.34.15.54.19.43,0,.57.06c1.18.77,2.52.22,3.75.52a.34.34,0,0,0,.22,0,1.58,1.58,0,0,1,2,.21A4.22,4.22,0,0,0,156.22,110.37Z"/><path class="cls-6" d="M47.76,149.25A21.87,21.87,0,0,1,27,131.45a20.54,20.54,0,0,1,.28-9,21.36,21.36,0,0,1,11-14.08A20,20,0,0,1,46,106a21.43,21.43,0,0,1,7.66.53,20.82,20.82,0,0,1,10.06,5.8,1.15,1.15,0,0,0,1.73.23c3.45-2.06,6.95-4,10.42-6,.45-.27.7-.19.89.29a26,26,0,0,0,3.68,6.43c.39.51.29.72-.19,1l-8.9,5.14c-.66.38-1.31.78-2,1.12a.54.54,0,0,0-.29.77,19.65,19.65,0,0,1,.93,7.18,21.41,21.41,0,0,1-9,16.64A21.77,21.77,0,0,1,47.76,149.25Z"/><path class="cls-6" d="M102.46,127.09a28.37,28.37,0,0,1-9.7-.85,27.4,27.4,0,0,1-8.25-3.53c-.52-.34-.59-.5,0-.82,1.16-.64,2.31-1.3,3.44-2a.66.66,0,0,1,.74,0,25.17,25.17,0,0,0,9.63,2.66,25.66,25.66,0,0,0,10.82-1.55,24.91,24.91,0,0,0,2.47-1.12.66.66,0,0,1,.74,0c1.15.7,2.32,1.38,3.49,2,.46.26.43.42,0,.69a29.06,29.06,0,0,1-11.28,4.17A6.65,6.65,0,0,1,102.46,127.09Z"/><path class="cls-5" d="M116.43,70.66a9.46,9.46,0,0,1,9.5-9.37c5.71.21,9.27,4.32,9.25,9.23,0,5.86-4.23,9.57-9.83,9.66C120.55,80.26,116.28,75.87,116.43,70.66Zm17.15-2.23c0,.28.13.31.35.23.15.3.2.7.69.73a2.76,2.76,0,0,0-.49-2,.27.27,0,0,0,0-.34c-.17-.23-.24-.65-.58-.59s-.08.44-.15.67a2.39,2.39,0,0,0-.11.64c0,.25-.11.57.3.63Zm-.72-2.51a.69.69,0,0,0-.91-.59c-.27.14-.4,0-.59-.09s-.51-.39-.73,0,.1.63.37.74a8.31,8.31,0,0,0,1.41.35C132.72,66.39,132.82,66.16,132.86,65.92Zm-5-3.3c1.17.31,2.19,1,3.37,1.29A3.48,3.48,0,0,0,127.82,62.62Zm5,2.61a1.67,1.67,0,0,0-1-1.17c-.16-.08-.35-.15-.45,0s.07.29.21.33A6.91,6.91,0,0,1,132.81,65.23Zm1.6,5.92c.25-.41.35-.74,0-1.11A1.34,1.34,0,0,0,134.41,71.15Z"/><path class="cls-6" d="M129.58,95a23.85,23.85,0,0,1,.15,3.68c0,.78-.13.84-.79.47-1.06-.61-2.12-1.22-3.19-1.82a1,1,0,0,1-.57-.93c0-.66-.18-1.31-.11-2,1.24-.16,2.42.47,3.68.3C129,94.65,129.24,95.06,129.58,95Z"/><path class="cls-5" d="M109.86,53.53c.08-.39.41-.27.65-.31A.79.79,0,0,1,109.86,53.53Z"/><path class="cls-5" d="M117.47,50.83c.09-.12.15-.28.35-.27C117.86,50.85,117.68,50.85,117.47,50.83Z"/><path class="cls-5" d="M110.54,53.22l.36-.14C110.83,53.25,110.68,53.23,110.54,53.22Z"/><path class="cls-5" d="M110.89,53.09l.17-.14Z"/><path class="cls-5" d="M109.7,53.67l.16-.16A.14.14,0,0,1,109.7,53.67Z"/><path class="cls-5" d="M115.46,91.86c-.13,0-.16-.11-.16-.22Z"/><path class="cls-5" d="M109.56,53.81l.15-.15A.14.14,0,0,1,109.56,53.81Z"/><path class="cls-4" d="M125.6,50a19,19,0,0,1,5,.2,21.68,21.68,0,0,1,3.28.67,25.11,25.11,0,0,1,8.61,4.5,41.89,41.89,0,0,1,4.77,4.93.87.87,0,0,1,.2.6c-1.17-1.22-2.3-2.48-3.52-3.63a25,25,0,0,0-8.67-5.41,26.12,26.12,0,0,0-8.6-1.63A2,2,0,0,1,125.6,50Z"/><path class="cls-4" d="M147.45,60.9c.56.08.62.62.87,1a4.48,4.48,0,0,1,1,1.82A9.41,9.41,0,0,1,147.45,60.9Z"/><path class="cls-4" d="M121.94,50.26c0-.15,0-.39.24-.38.61,0,1.25-.2,1.84.12A3.38,3.38,0,0,1,121.94,50.26Z"/><path class="cls-4" d="M149.5,63.87c.25,0,.32.2.3.43A.38.38,0,0,1,149.5,63.87Z"/><path class="cls-4" d="M149.36,63.71c.11,0,.15,0,.13.15S149.35,63.81,149.36,63.71Z"/><path class="cls-7" d="M82.12,66.34a1.9,1.9,0,0,1,.52,1.08c0,.21.1.53-.14.57s-.36-.27-.38-.51S82.12,66.73,82.12,66.34Z"/><path class="cls-4" d="M79.74,62.81c.84.18,1.16.9,1.56,1.54-.48-.56-1.22-.85-1.55-1.55Z"/><path class="cls-4" d="M79.61,62.65l-.07,0,.06,0Z"/><path class="cls-4" d="M79.75,62.8l-.14-.15h0a.13.13,0,0,1,.14.15Z"/><path class="cls-5" d="M156.22,110.37a4.22,4.22,0,0,1-3.83-.64,1.58,1.58,0,0,0-2-.21.34.34,0,0,1-.22,0c-1.23-.3-2.57.25-3.75-.52-.14-.09-.38,0-.57-.06s-.51.13-.54-.19.25-.34.45-.44a2.68,2.68,0,0,1,2.16.19,1,1,0,0,0,.83,0,5.81,5.81,0,0,1,3.15-.31,2.61,2.61,0,0,1,2,1.36,1.21,1.21,0,0,0,1,.57C155.38,110.2,155.8,110.3,156.22,110.37Z"/><path class="cls-4" d="M132.86,65.92c0,.24-.14.47-.45.41A8.31,8.31,0,0,1,131,66c-.27-.11-.59-.34-.37-.74s.49-.14.73,0,.32.23.59.09A.69.69,0,0,1,132.86,65.92Z"/><path class="cls-4" d="M127.82,62.62a3.48,3.48,0,0,1,3.37,1.29C130,63.61,129,62.93,127.82,62.62Z"/><path class="cls-7" d="M134.13,67.42a2.76,2.76,0,0,1,.49,2c-.49,0-.54-.43-.69-.73s-.1-.36-.35-.23h0C134,68.2,133.56,67.54,134.13,67.42Z"/><path class="cls-4" d="M134.13,67.42c-.57.12-.18.78-.56,1-.41-.06-.31-.38-.3-.63a2.39,2.39,0,0,1,.11-.64c.07-.23-.29-.61.15-.67s.41.36.58.59A.27.27,0,0,1,134.13,67.42Z"/><path class="cls-4" d="M132.81,65.23a6.91,6.91,0,0,0-1.21-.81c-.14,0-.29-.18-.21-.33s.29-.11.45,0A1.67,1.67,0,0,1,132.81,65.23Z"/><path class="cls-4" d="M134.41,71.15a1.34,1.34,0,0,1,0-1.11C134.76,70.41,134.66,70.74,134.41,71.15Z"/><path class="cls-4" d="M133.58,68.43c.25-.13.32,0,.35.23C133.71,68.74,133.56,68.71,133.58,68.43Z"/></g><g id="Layer_6" data-name="Layer 6"><polygon class="cls-8" points="196.6 17.38 190 22.18 10 152.95 0.01 160.21 0 160.2 0 139.14 10 131.87 177.73 10 186.57 3.58 196.6 17.38"/></g><g id="Layer_4" data-name="Layer 4"><path id="rect5205-3-6" class="cls-9" d="M5.5,140v31.5a21,21,0,0,0,21,21h147a21,21,0,0,0,21-21V140Z"/><path class="cls-9" d="M185,0H15A15,15,0,0,0,0,15V185a15,15,0,0,0,15,15H185a15,15,0,0,0,15-15V15A15,15,0,0,0,185,0Zm5,180a10,10,0,0,1-10,10H20a10,10,0,0,1-10-10V20A10,10,0,0,1,20,10H180a10,10,0,0,1,10,10Z"/></g><g id="Layer_3" data-name="Layer 3"><text class="cls-10" transform="translate(14.06 179.47)">Anti-Raptor</text></g></g></svg>