<svg xmlns="http://www.w3.org/2000/svg" viewBox="0 0 200 200"><defs><style>.cls-1{fill:#08395e;}.cls-2{fill:#2cacf4;}.cls-3{fill:#222;}.cls-4{font-size:37px;fill:#fff;font-family:ModMatrix, ModMatrix;font-weight:700;}</style></defs><title>Discordler</title><g id="Layer_2" data-name="Layer 2"><g id="svg8"><rect id="rect5165" class="cls-1" x="10" y="10" width="180" height="180" rx="10" ry="10"/></g><g id="Layer_7" data-name="Layer 7"><path class="cls-2" d="M71.58,126.89c-2.4,3.27-4.44,6.37-6.84,9.16A5,5,0,0,1,61,137.51c-14-1.59-27.07-5.66-38.22-14.71-6.21-5-9-10.92-8.21-19.45a221.12,221.12,0,0,1,16.19-66C34.47,28.43,40.38,22,49.41,19c8.41-2.81,17-5,25.69-7,4.32-1,5.35.14,6.42,4.82-3.82,1-7.77,1.58-11.44,3C63.46,22.2,57,25.07,50.49,27.94c-2.28,1-3.88,2.83-2.38,5.48s3.75,2.13,6.19.88q45.35-23.35,90.74,0c2.46,1.28,4.64,1.83,6.16-1s-.32-4.24-2.46-5.51A90.25,90.25,0,0,0,121.1,17.58c-.82-.17-1.66-.31-2.47-.53a3.78,3.78,0,0,1-.94-.54c.52-3.43,2.19-5.24,5.87-4.75,11.19,1.5,21.93,4.34,31.9,9.86a26.84,26.84,0,0,1,11.32,12.24A173.11,173.11,0,0,1,181.3,79.12c1.69,9.35,2.33,18.88,3.56,28.31.55,4.17-.93,7.46-3.55,10.55-6.89,8.11-15.91,12.82-25.8,15.92-5,1.57-10.31,2.38-15.48,3.54a5.76,5.76,0,0,1-6.76-2.82c-1.61-2.54-3.49-4.9-5.49-7.67a44.26,44.26,0,0,0,4.5-1.55c7.35-3.52,14.71-7,22-10.73,2.37-1.21,3.78-3.42,2-6s-4.05-1.6-6.27,0c-11.51,8.17-24.61,12-38.45,13.45-16.39,1.67-32.56.42-48-5.91-5.07-2.09-9.8-5.08-14.56-7.88-2.11-1.24-4.09-2-5.77.14-1.8,2.26-1,4.59,1.32,5.8,7.33,3.83,14.78,7.43,22.23,11A38.88,38.88,0,0,0,71.58,126.89ZM61.72,81.7l.9.43a23.35,23.35,0,0,0,.17,2.52c1,5.45,3.72,9.72,9.14,11.57,4.62,1.58,8.8.31,12.23-3.14,5.76-5.79,5.79-16.06.13-22-5.08-5.29-13.28-5.33-17.75.47C64.31,74.48,63.29,78.3,61.72,81.7Zm74.9.22c0-9.45-7.51-16.28-15.71-14.36-5.78,1.35-10.26,7.77-10.19,14.59.07,7,4.46,13,10.44,14.36C129.33,98.33,136.66,91.42,136.62,81.92Z"/></g><g id="Layer_4" data-name="Layer 4"><path id="rect5205-3-6" class="cls-3" d="M5.5,140v31.5a21,21,0,0,0,21,21h147a21,21,0,0,0,21-21V140Z"/><path class="cls-3" d="M185,0H15A15,15,0,0,0,0,15V185a15,15,0,0,0,15,15H185a15,15,0,0,0,15-15V15A15,15,0,0,0,185,0Zm5,180a10,10,0,0,1-10,10H20a10,10,0,0,1-10-10V20A10,10,0,0,1,20,10H180a10,10,0,0,1,10,10Z"/></g><g id="Layer_3" data-name="Layer 3"><text class="cls-4" transform="translate(23.06 179.47)">Discordler</text></g></g></svg>