<svg xmlns="http://www.w3.org/2000/svg" viewBox="0 0 200 200"><defs><style>.cls-1,.cls-8{fill:#fff;}.cls-2{fill:#fdcb4e;}.cls-3{fill:#5eadeb;}.cls-4{fill:#f2f4f3;}.cls-5{fill:#674703;}.cls-6{fill:#f8f7f5;}.cls-7{fill:#222;}.cls-8{font-size:37px;font-family:ModMatrix, ModMatrix;font-weight:700;}</style></defs><title>Gut</title><g id="Layer_2" data-name="Layer 2"><g id="svg8"><rect id="rect5165" class="cls-1" x="10" y="10" width="180" height="180" rx="10" ry="10"/></g><g id="Layer_7" data-name="Layer 7"><path class="cls-2" d="M91.1,9.8h20.33c.79,1.49,2.37,1.1,3.59,1.42q39.72,10.2,49.9,49.89c.31,1.23-.08,2.81,1.41,3.59V86.05c-2.94,4.08-2.29,9.53-5.21,13.61a105.45,105.45,0,0,0-15.41-19.73c1.77-13-2.91-19.24-15.51-20.52,1.48-1.1,4.42-1.36,3.35-4.11-1.13-2.91-3.57-1.66-5.59-.94a28,28,0,0,0-16,13.72c-.88,1.69-2.58,3.77-.35,5.4,2.7,2,3.68-.91,5.06-2.41a17.78,17.78,0,0,0,6.61,16.14,111.8,111.8,0,0,1-43.89,0c4.92-4.36,6.48-9.91,5.74-16.27,1.6,1.29,1.93,5.28,5.09,3.18,2.71-1.8.62-4.31-.45-6.24A28.25,28.25,0,0,0,73.32,54.6c-1.57-.52-3.38-1.24-4.58.56-1.47,2.22.43,3.3,1.82,4.48C57.91,63,54,68.86,56.34,80.58c-6,5.54-10.61,12.16-15,19-2.93-4-2.25-9.48-5.19-13.52V63.68c1.69-1,1.48-2.92,1.91-4.47Q48.73,21.53,86.53,11.48C88.07,11.07,90,11.47,91.1,9.8Z"/><path class="cls-2" d="M111.43,139.93H90.08c-1.18-1.76-3.21-1.53-4.91-2-9-2.49-17.31-6.19-24.38-12.39C66.38,124,71,121,74,115.94c18.48,12.83,36,12.84,54.45,0,3.06,5.08,7.66,8,13.26,9.58-5.68,5.12-12.46,8.26-19.52,11C118.68,137.87,114.71,137.82,111.43,139.93Z"/><path class="cls-3" d="M161.12,99.66c4.34,15.51-3.38,25.82-19.39,25.89-5.6-1.56-10.2-4.5-13.26-9.58-2.47-4.91-1.72-10.2-1.79-15.39a14,14,0,0,0,1-6.18c.42-1.69.83-3.39,1.25-5.08,7.76.74,13.23-2.65,16.82-9.39A105.45,105.45,0,0,1,161.12,99.66Z"/><path class="cls-3" d="M60.79,125.54c-16,0-23.95-10.61-19.4-26,4.34-6.83,9-13.45,14.94-19,3.78,6.77,9.41,10.11,17.27,9.25.42,1.52.84,3,1.25,4.57a13.06,13.06,0,0,0,1,6.12c-.06,5.2.64,10.49-1.78,15.42C71,121,66.38,124,60.79,125.54Z"/><path class="cls-4" d="M73.6,89.83c-7.86.86-13.49-2.48-17.27-9.25C54,68.86,57.91,63,70.55,59.64A19.33,19.33,0,0,1,85.09,71c.74,6.36-.82,11.91-5.74,16.27Zm-3-21.57a6.78,6.78,0,0,0-7,6.5,6.91,6.91,0,0,0,6.48,7,6.76,6.76,0,0,0,6.92-6.55A6.66,6.66,0,0,0,70.64,68.26Z"/><path class="cls-4" d="M145.71,79.93c-3.59,6.74-9.06,10.13-16.82,9.39l-5.65-2.11a17.8,17.8,0,0,1-6.62-16.13c2.57-6.16,7.22-9.91,13.58-11.67C142.8,60.69,147.48,66.89,145.71,79.93Zm-7.46-5.41a6.71,6.71,0,0,0-6.7-6.75,6.88,6.88,0,0,0-6.77,6.74,6.72,6.72,0,0,0,6.76,6.69A6.57,6.57,0,0,0,138.25,74.52Z"/><path class="cls-5" d="M123.24,87.21l5.65,2.11c-.42,1.69-.83,3.39-1.25,5.08a164,164,0,0,1-52.79,0c-.41-1.53-.83-3.05-1.25-4.57l5.75-2.61A111.8,111.8,0,0,0,123.24,87.21Z"/><path class="cls-5" d="M85.09,71A19.33,19.33,0,0,0,70.55,59.64c-1.38-1.18-3.28-2.26-1.81-4.48,1.2-1.8,3-1.08,4.58-.56A28.25,28.25,0,0,1,89.73,67.89c1.07,1.93,3.16,4.44.45,6.24C87,76.23,86.69,72.24,85.09,71Z"/><path class="cls-5" d="M130.2,59.41c-6.36,1.76-11,5.51-13.58,11.67-1.37,1.49-2.35,4.37-5.05,2.4-2.23-1.63-.53-3.71.35-5.4a28,28,0,0,1,16-13.72c2-.72,4.46-2,5.59.94C134.62,58.05,131.68,58.31,130.2,59.41Z"/><path class="cls-5" d="M74,115.94c2.42-4.93,1.72-10.22,1.78-15.42q25.42,14.22,50.88.06c.07,5.19-.68,10.48,1.79,15.39C110,128.78,92.5,128.77,74,115.94Z"/><path class="cls-6" d="M126.68,100.58q-25.46,14.13-50.88-.06a13.06,13.06,0,0,1-1-6.12,164,164,0,0,0,52.79,0A14,14,0,0,1,126.68,100.58Z"/><path class="cls-5" d="M70.64,68.26a6.66,6.66,0,0,1,6.42,7,6.76,6.76,0,0,1-6.92,6.55,6.91,6.91,0,0,1-6.48-7A6.78,6.78,0,0,1,70.64,68.26Z"/><path class="cls-5" d="M138.25,74.52a6.57,6.57,0,0,1-6.71,6.68,6.72,6.72,0,0,1-6.76-6.69,6.88,6.88,0,0,1,6.77-6.74A6.71,6.71,0,0,1,138.25,74.52Z"/></g><g id="Layer_4" data-name="Layer 4"><path id="rect5205-3-6" class="cls-7" d="M5.5,140v31.5a21,21,0,0,0,21,21h147a21,21,0,0,0,21-21V140Z"/><path class="cls-7" d="M185,0H15A15,15,0,0,0,0,15V185a15,15,0,0,0,15,15H185a15,15,0,0,0,15-15V15A15,15,0,0,0,185,0Zm5,180a10,10,0,0,1-10,10H20a10,10,0,0,1-10-10V20A10,10,0,0,1,20,10H180a10,10,0,0,1,10,10Z"/></g><g id="Layer_3" data-name="Layer 3"><text class="cls-8" transform="translate(76.06 179.47)">Gut</text></g></g></svg>