<svg xmlns="http://www.w3.org/2000/svg" viewBox="0 0 200 200"><defs><style>.cls-1{fill:#222;}.cls-2{fill:#5671e2;}.cls-3{font-size:37px;fill:#fff;font-family:ModMatrix, ModMatrix;font-weight:700;}</style></defs><title>Linksbruch</title><g id="Layer_2" data-name="Layer 2"><g id="svg8"><g id="g5175"><rect class="cls-1" width="200" height="200" rx="15" ry="15"/><rect id="rect5165" class="cls-2" x="10" y="10" width="180" height="180" rx="10" ry="10"/><path id="rect5205-3-6" class="cls-1" d="M5.5,140v31.5a21,21,0,0,0,21,21h147a21,21,0,0,0,21-21V140Z"/></g></g><g id="Layer_2-2" data-name="Layer 2"><path class="cls-1" d="M15,168.07c-1.19-4.31-.34-8.37,1.5-12.31a19.08,19.08,0,0,1,5.15-6.18c7.57-6.56,14.27-13.92,19.14-22.68,3.41-6.14,6.25-12.61,9.07-19.06C54.42,97.45,58.72,87,63.13,76.5c.09-.22.21-.43.37-.77.46.64.87,1.19,1.25,1.75a1.85,1.85,0,0,0,2.45.74c.91-.34,1.81-.71,2.69-1.1,2-.87,2.31-.81,3.37,1.06.86,1.54,1.6,3.15,2.43,4.81l4.9-1.39c-.76,1.94-1.48,3.69-2.13,5.47-5.15,14.08-10.36,28.13-15.41,42.24a52.89,52.89,0,0,0-3.34,17,58.09,58.09,0,0,0,2.38,15.77,51.72,51.72,0,0,1,2,12.17c.17,7.5-3.24,13-9.35,17-.32.2-.6.45-.9.67l-3.17,1.59c-.75.23-1.51.47-2.27.68-5.1,1.41-8.1.78-12.4-3.63a4,4,0,0,1-1-2.21c-.22-2-.27-4-.31-6-.08-3.65-1.43-5.66-4.9-6.84a48.68,48.68,0,0,0-4.93-1.24c-3.18-.72-6.36-1.44-8.71-4Z"/><path class="cls-1" d="M143.25,0c-2.13,1.45-4.29,2.86-6.36,4.39A35.43,35.43,0,0,0,131.15,10c-.87,1-1.72,2.05-2.58,3.07a628.36,628.36,0,0,0-44,59.34,8.12,8.12,0,0,0-.74,1.13c-1.17,2.73-3.73,2.27-5.94,2.57-.22,0-.65-.48-.76-.81-.54-1.67-1-3.37-1.5-5.08a1.21,1.21,0,0,0-1.49-1c-1.65.22-3.3.43-4.94.69a1.1,1.1,0,0,1-1.42-.8A4.51,4.51,0,0,1,68,64.7c2.59-4,5.19-8,7.72-12,7.92-12.54,15.86-25.07,23.7-37.67,1-1.66,2-3.34,2.92-5.06a74.79,74.79,0,0,0,4.41-10Z"/><path class="cls-1" d="M18,62.32a5.61,5.61,0,0,1,4-.45c5,.84,10,1.63,14.94,2.64,3.29.68,6.51,1.66,9.74,2.59.8.23,2,.38,1.93,1.53s-1.34,1.15-2.17,1.25c-4,.47-7.9,1-11.87,1.2-4.9.25-9.82.17-14.73.28-2.43.06-4.75-2.61-4.63-5.18C15.23,64.48,16,63.43,18,62.32Z"/><path class="cls-1" d="M50.14,52.45c.6,1.17.28,1.72-.86,1.6a8.45,8.45,0,0,1-2.3-.63A126.19,126.19,0,0,1,24.2,40.82a4.49,4.49,0,0,1-1.7-5.73,5,5,0,0,1,5.16-2.7,6.92,6.92,0,0,1,2.8,1.49c3.67,3,7.38,6.07,10.88,9.31,2.91,2.7,5.55,5.69,8.3,8.56A5.78,5.78,0,0,1,50.14,52.45Z"/><path class="cls-1" d="M57,19.21c1.5,4.62,3.1,9.2,4.47,13.85,1.12,3.82,2,7.72,2.93,11.58a2.46,2.46,0,0,1,.11,1c-.12.53-.29,1.4-.59,1.48a2,2,0,0,1-1.59-.56,21,21,0,0,1-2.37-3,174.18,174.18,0,0,1-11.38-20c-.13-.28-.25-.58-.37-.86A4.62,4.62,0,1,1,56.67,19c0,.1.1.19.14.28Z"/><text class="cls-3" transform="translate(17.29 179.47)">Linksbruch</text></g></g></svg>