<svg xmlns="http://www.w3.org/2000/svg" viewBox="0 0 200 200"><defs><style>.cls-1{fill:#d8258c;}.cls-2{fill:#222;}.cls-3{font-size:37px;fill:#fff;font-family:ModMatrix, ModMatrix;font-weight:700;}</style></defs><title>Rechtsbruch</title><g id="Layer_2" data-name="Layer 2"><g id="svg8"><rect id="rect5165" class="cls-1" x="10" y="10" width="180" height="180" rx="10" ry="10"/></g><g id="Layer_2-2" data-name="Layer 2"><path class="cls-2" d="M179.7,168.07c1.19-4.31.34-8.37-1.5-12.31a19.21,19.21,0,0,0-5.15-6.18c-7.57-6.56-14.27-13.92-19.14-22.68-3.42-6.14-6.26-12.61-9.07-19.06C140.3,97.45,136,87,131.59,76.5c-.09-.22-.21-.43-.38-.77-.46.64-.87,1.19-1.24,1.75a1.85,1.85,0,0,1-2.45.74c-.91-.34-1.81-.71-2.69-1.1-2-.87-2.32-.81-3.37,1.06-.87,1.54-1.6,3.15-2.44,4.81l-4.89-1.39c.75,1.94,1.48,3.69,2.13,5.47,5.15,14.08,10.35,28.13,15.4,42.24a52.9,52.9,0,0,1,3.35,17,57.71,57.71,0,0,1-2.39,15.77,52.77,52.77,0,0,0-2,12.17c-.17,7.5,3.25,13,9.36,17,.31.2.6.45.9.67l3.17,1.59c.75.23,1.5.47,2.26.68,5.11,1.41,8.11.78,12.4-3.63a3.93,3.93,0,0,0,1-2.21c.21-2,.27-4,.31-6,.07-3.65,1.43-5.66,4.9-6.84a48,48,0,0,1,4.93-1.24c3.18-.72,6.36-1.44,8.71-4Z"/><path class="cls-2" d="M51.47,0c2.13,1.45,4.29,2.86,6.36,4.39A35.43,35.43,0,0,1,63.57,10c.87,1,1.72,2.05,2.58,3.07a628.36,628.36,0,0,1,44,59.34,8.12,8.12,0,0,1,.74,1.13c1.17,2.73,3.73,2.27,5.94,2.57.22,0,.65-.48.76-.81.54-1.67,1-3.37,1.5-5.08a1.21,1.21,0,0,1,1.49-1c1.65.22,3.3.43,4.94.69a1.1,1.1,0,0,0,1.42-.8,4.51,4.51,0,0,0-.22-4.37c-2.59-4-5.19-8-7.72-12-7.92-12.54-15.86-25.07-23.7-37.67-1-1.66-2-3.34-2.92-5.06A74.79,74.79,0,0,1,87.94,0Z"/><path class="cls-2" d="M176.75,62.32a5.61,5.61,0,0,0-4-.45c-5,.84-10,1.63-14.94,2.64-3.29.68-6.52,1.66-9.75,2.59-.8.23-2,.38-1.92,1.53s1.33,1.15,2.17,1.25c3.95.47,7.9,1,11.87,1.2,4.9.25,9.82.17,14.73.28,2.43.06,4.74-2.61,4.63-5.18C179.49,64.48,178.77,63.43,176.75,62.32Z"/><path class="cls-2" d="M144.58,52.45c-.6,1.17-.28,1.72.86,1.6a8.29,8.29,0,0,0,2.29-.63,126.27,126.27,0,0,0,22.79-12.6,4.48,4.48,0,0,0,1.69-5.73,5,5,0,0,0-5.16-2.7,7,7,0,0,0-2.79,1.49c-3.68,3-7.38,6.07-10.88,9.31-2.91,2.7-5.55,5.69-8.3,8.56A4.15,4.15,0,0,0,144.58,52.45Z"/><path class="cls-2" d="M137.7,19.21c-1.5,4.62-3.11,9.2-4.48,13.85-1.12,3.82-2,7.72-2.92,11.58a2.46,2.46,0,0,0-.11,1c.12.53.28,1.4.59,1.48a2,2,0,0,0,1.59-.56,21.75,21.75,0,0,0,2.37-3,175.61,175.61,0,0,0,11.37-20c.14-.28.26-.58.38-.86a4.5,4.5,0,0,0-2.14-6.13A4.56,4.56,0,0,0,138,19a1.47,1.47,0,0,1-.14.28Z"/></g><g id="Layer_4" data-name="Layer 4"><path id="rect5205-3-6" class="cls-2" d="M5.5,140v31.5a21,21,0,0,0,21,21h147a21,21,0,0,0,21-21V140Z"/><path class="cls-2" d="M185,0H15A15,15,0,0,0,0,15V185a15,15,0,0,0,15,15H185a15,15,0,0,0,15-15V15A15,15,0,0,0,185,0Zm5,180a10,10,0,0,1-10,10H20a10,10,0,0,1-10-10V20A10,10,0,0,1,20,10H180a10,10,0,0,1,10,10Z"/></g><g id="Layer_3" data-name="Layer 3"><text class="cls-3" transform="translate(9.9 179.47)">Rechtsbruch</text></g></g></svg>