<svg xmlns="http://www.w3.org/2000/svg" viewBox="0 0 200 200"><defs><style>.cls-1{fill:#e21010;}.cls-2{fill:#ef851b;}.cls-3{fill:#222;}.cls-4{font-size:37px;fill:#fff;font-family:ModMatrix, ModMatrix;font-weight:700;}</style></defs><title>Redditor</title><g id="Layer_2" data-name="Layer 2"><g id="svg8"><rect id="rect5165" class="cls-1" x="10" y="10" width="180" height="180" rx="10" ry="10"/></g><g id="Layer_7" data-name="Layer 7"><path class="cls-2" d="M164.76,73.47v6.59c-1.56,3.51-3.32,6.85-6.79,8.94a2.27,2.27,0,0,0-.59,1.85c.85,8.12-1.79,15.1-6.79,21.35a47,47,0,0,1-15.85,12.41c-15,7.6-31,9.53-47.47,7.47-13.58-1.69-26.18-6.11-36.48-15.53-7.65-7-12.21-15.42-10.81-26.24a2,2,0,0,0-.63-1.58c-3.16-2.15-4.87-5.31-6.33-8.67V73.47c1.76-2.71,3-5.93,5.37-8,5.35-4.84,11.75-4.5,19.22.33C69.28,58.55,82.19,55.36,95.84,54.9c1.57-.06,1.94-.92,2.31-2.1Q102.07,40.4,106,28c1-3.22,1.46-3.5,4.7-2.75,6.23,1.44,12.48,2.81,18.66,4.43,2.23.59,3.47.4,4.86-1.74a11.69,11.69,0,0,1,14.85-3.88,11.91,11.91,0,0,1,6.36,14,11.78,11.78,0,0,1-12.7,8.61c-6.18-.58-9.74-4.41-11.11-12.14L110,29.46l-8,25.29c1.42.15,2.49.29,3.57.38,11.73,1,22.82,3.94,33,9.95a3.52,3.52,0,0,0,3-.34,14.88,14.88,0,0,1,17-.06C161.8,66.84,163.42,70.05,164.76,73.47ZM87.45,86.73a8.55,8.55,0,1,0-17.1-.38,8.55,8.55,0,1,0,17.1.38Zm22.89-.29a8.59,8.59,0,0,0,17.17.47,8.59,8.59,0,1,0-17.17-.47ZM98.75,119.27l.14-.81c1.65,0,3.3.13,4.93,0,5.6-.55,11.06-1.67,15.31-5.73.66-.63.5-2.11.72-3.2a10.76,10.76,0,0,0-3.15.36c-2.81,1.2-5.42,3.31-8.32,3.81-9.62,1.63-19.27,2.46-27.77-4.14-.56-.44-1.77,0-2.68,0,.08,1-.21,2.39.32,2.82,1.81,1.48,3.75,3.16,5.92,3.78C88.94,117.49,93.88,118.26,98.75,119.27Z"/></g><g id="Layer_4" data-name="Layer 4"><path id="rect5205-3-6" class="cls-3" d="M5.5,140v31.5a21,21,0,0,0,21,21h147a21,21,0,0,0,21-21V140Z"/><path class="cls-3" d="M185,0H15A15,15,0,0,0,0,15V185a15,15,0,0,0,15,15H185a15,15,0,0,0,15-15V15A15,15,0,0,0,185,0Zm5,180a10,10,0,0,1-10,10H20a10,10,0,0,1-10-10V20A10,10,0,0,1,20,10H180a10,10,0,0,1,10,10Z"/></g><g id="Layer_3" data-name="Layer 3"><text class="cls-4" transform="translate(35.06 179.47)">Redditor</text></g></g></svg>