<svg xmlns="http://www.w3.org/2000/svg" viewBox="0 0 200 200"><defs><style>.cls-1{fill:#ffcc4d;}.cls-2{fill:#664500;}.cls-3,.cls-6{fill:#fff;}.cls-4{fill:#5dadec;}.cls-5{fill:#222;}.cls-6{font-size:37px;font-family:ModMatrix, ModMatrix;font-weight:700;}</style></defs><title>Schlecht</title><g id="Layer_2" data-name="Layer 2"><g id="svg8"><rect id="rect5165" x="10" y="10" width="180" height="180" rx="10" ry="10"/></g><g id="Layer_7" data-name="Layer 7"><path class="cls-1" d="M164,75.25A64.87,64.87,0,1,1,99.14,10.39,64.86,64.86,0,0,1,164,75.25"/><path class="cls-2" d="M136.83,74.52c-.22-.49-5.41-11.88-16.06-11.88S104.92,74,104.71,74.52a1.78,1.78,0,0,0,.52,2.13,1.82,1.82,0,0,0,2.2,0s4.54-3.25,13.34-3.25S134,76.63,134.11,76.7a1.74,1.74,0,0,0,1.07.35,1.78,1.78,0,0,0,1.12-.39A1.81,1.81,0,0,0,136.83,74.52Zm-43.25,0c-.21-.49-5.4-11.88-16.06-11.88S61.68,74,61.46,74.52a1.8,1.8,0,0,0,2.72,2.18s4.55-3.25,13.34-3.25,13.24,3.18,13.34,3.25a1.79,1.79,0,0,0,1.08.35,1.82,1.82,0,0,0,1.12-.39A1.79,1.79,0,0,0,93.58,74.52ZM146,68.05a3.62,3.62,0,0,1-3.35-2.27c-6.4-16-22.42-19.39-22.58-19.43a3.6,3.6,0,1,1,1.41-7.06c.82.16,20,4.21,27.86,23.81a3.6,3.6,0,0,1-2,4.68A3.44,3.44,0,0,1,146,68.05Zm-93.69,0A3.71,3.71,0,0,1,51,67.79a3.6,3.6,0,0,1-2-4.69C56.8,43.5,76,39.45,76.82,39.29a3.6,3.6,0,0,1,1.42,7.06c-.66.14-16.23,3.53-22.59,19.43A3.62,3.62,0,0,1,52.3,68.05ZM99.14,89.67c-13,0-21.71-1.52-32.43-3.61-2.44-.47-7.2,0-7.2,7.21,0,14.41,16.55,32.43,39.63,32.43s39.64-18,39.64-32.43c0-7.21-4.76-7.68-7.2-7.21C120.86,88.15,112.2,89.67,99.14,89.67Z"/><path class="cls-3" d="M66.71,93.27s10.81,3.6,32.43,3.6,32.44-3.6,32.44-3.6-7.21,14.41-32.44,14.41S66.71,93.27,66.71,93.27Z"/><path class="cls-4" d="M73.37,112.11a18,18,0,0,1-34.93-8.87c2.45-9.64,22.84-31.37,26.33-30.49S75.82,102.47,73.37,112.11Zm51.48,0a18,18,0,1,0,34.93-8.87c-2.45-9.64-22.84-31.37-26.34-30.49S122.4,102.47,124.85,112.11Z"/></g><g id="Layer_4" data-name="Layer 4"><path id="rect5205-3-6" class="cls-5" d="M5.5,140v31.5a21,21,0,0,0,21,21h147a21,21,0,0,0,21-21V140Z"/><path class="cls-5" d="M185,0H15A15,15,0,0,0,0,15V185a15,15,0,0,0,15,15H185a15,15,0,0,0,15-15V15A15,15,0,0,0,185,0Zm5,180a10,10,0,0,1-10,10H20a10,10,0,0,1-10-10V20A10,10,0,0,1,20,10H180a10,10,0,0,1,10,10Z"/></g><g id="Layer_3" data-name="Layer 3"><text class="cls-6" transform="translate(43.06 179.47)">Schlecht</text></g></g></svg>